<svg xmlns="http://www.w3.org/2000/svg" width="760" height="570" viewBox="0 0 760 570" font-family="Inter, Helvetica, Arial, sans-serif"><defs><marker id="ar" viewBox="0 0 10 10" refX="9.2" refY="5" markerWidth="5" markerHeight="5" orient="auto-start-reverse"><path d="M0,1.7 L9,5 L0,8.3 z" fill="#da0000"/></marker><marker id="arb" viewBox="0 0 10 10" refX="9.2" refY="5" markerWidth="5" markerHeight="5" orient="auto-start-reverse"><path d="M0,1.7 L9,5 L0,8.3 z" fill="#000000"/></marker></defs><text x="380.0" y="24.0" font-size="15" fill="#3f4a54" text-anchor="middle" font-weight="400" font-style="italic">scanwidth: how tree-like is the network?</text><path d="M436.8,84.0 Q514.8,140.6 436.8,197.2" fill="none" stroke="#000000" stroke-width="2.0" stroke-linecap="round"/><line x1="436.8" y1="84.0" x2="550.4" y2="140.6" stroke="#000000" stroke-width="2.0" stroke-linecap="round"/><line x1="550.4" y1="140.6" x2="664.0" y2="197.2" stroke="#000000" stroke-width="2.0" stroke-linecap="round"/><path d="M550.4,140.6 Q551.8,264.5 436.8,310.5" fill="none" stroke="#000000" stroke-width="2.0" stroke-linecap="round"/><path d="M436.8,197.2 Q316.1,239.5 209.6,310.5" fill="none" stroke="#000000" stroke-width="2.0" stroke-linecap="round"/><line x1="436.8" y1="197.2" x2="323.2" y2="253.8" stroke="#000000" stroke-width="2.0" stroke-linecap="round"/><line x1="209.6" y1="310.5" x2="96.0" y2="367.1" stroke="#000000" stroke-width="2.0" stroke-linecap="round"/><line x1="209.6" y1="310.5" x2="323.2" y2="367.1" stroke="#000000" stroke-width="2.0" stroke-linecap="round"/><path d="M323.2,253.8 Q263.2,310.5 323.2,367.1" fill="none" stroke="#000000" stroke-width="2.0" stroke-linecap="round"/><line x1="323.2" y1="253.8" x2="436.8" y2="310.5" stroke="#000000" stroke-width="2.0" stroke-linecap="round"/><line x1="436.8" y1="310.5" x2="550.4" y2="367.1" stroke="#000000" stroke-width="2.0" stroke-linecap="round"/><line x1="323.2" y1="367.1" x2="323.2" y2="452.0" stroke="#000000" stroke-width="2.0" stroke-linecap="round"/><path d="M114.9,310.5 Q135.5,352.1 171.7,381.2" fill="none" stroke="#da0000" stroke-opacity="0.17" stroke-width="4.2" stroke-linecap="round"/><path d="M266.4,409.5 Q323.2,419.5 380.0,409.5" fill="none" stroke="#da0000" stroke-opacity="0.17" stroke-width="4.2" stroke-linecap="round"/><path d="M455.7,367.1 Q499.6,346.8 531.5,310.5" fill="none" stroke="#da0000" stroke-opacity="0.17" stroke-width="4.2" stroke-linecap="round"/><path d="M228.5,367.1 Q281.0,347.4 323.2,310.5" fill="none" stroke="#da0000" stroke-opacity="0.34" stroke-width="4.2" stroke-linecap="round"/><path d="M285.3,310.5 Q253.5,274.1 209.6,253.8" fill="none" stroke="#da0000" stroke-opacity="0.50" stroke-width="4.2" stroke-linecap="round"/><path d="M342.1,310.5 Q393.6,298.4 436.8,268.0" fill="none" stroke="#da0000" stroke-opacity="0.34" stroke-width="4.2" stroke-linecap="round"/><path d="M417.9,253.8 Q386.0,217.5 342.1,197.2" fill="none" stroke="#da0000" stroke-opacity="0.67" stroke-width="4.2" stroke-linecap="round"/><path d="M436.8,140.6 Q468.7,176.9 512.5,197.2" fill="none" stroke="#da0000" stroke-opacity="0.82" stroke-width="4.2" stroke-linecap="round"/><path d="M569.3,197.2 Q613.2,176.9 645.1,140.6" fill="none" stroke="#da0000" stroke-opacity="0.17" stroke-width="4.2" stroke-linecap="round"/><path d="M455.7,140.6 Q499.6,120.3 531.5,84.0" fill="none" stroke="#da0000" stroke-opacity="1.00" stroke-width="4.2" stroke-linecap="round"/><circle cx="436.8" cy="84.0" r="4.4" fill="#ffffff" stroke="#000000" stroke-width="2.0"/><circle cx="550.4" cy="140.6" r="4.4" fill="#ffffff" stroke="#000000" stroke-width="2.0"/><circle cx="436.8" cy="197.2" r="4.4" fill="#ffffff" stroke="#000000" stroke-width="2.0"/><circle cx="323.2" cy="253.8" r="4.4" fill="#ffffff" stroke="#000000" stroke-width="2.0"/><circle cx="209.6" cy="310.5" r="4.4" fill="#ffffff" stroke="#000000" stroke-width="2.0"/><circle cx="323.2" cy="367.1" r="5.0" fill="#da0000"/><circle cx="436.8" cy="310.5" r="5.0" fill="#da0000"/><circle cx="96.0" cy="367.1" r="4.2" fill="#000000"/><circle cx="323.2" cy="452.0" r="4.2" fill="#000000"/><circle cx="550.4" cy="367.1" r="4.2" fill="#000000"/><circle cx="664.0" cy="197.2" r="4.2" fill="#000000"/><text x="450.8" y="78.0" font-size="15" fill="#000000" text-anchor="middle" font-weight="500"><tspan font-style='italic'>ρ</tspan></text><text x="564.4" y="134.6" font-size="15" fill="#000000" text-anchor="middle" font-weight="500"><tspan font-style='italic'>w</tspan></text><text x="422.8" y="191.2" font-size="15" fill="#000000" text-anchor="middle" font-weight="500"><tspan font-style='italic'>q</tspan></text><text x="309.2" y="247.8" font-size="15" fill="#000000" text-anchor="middle" font-weight="500"><tspan font-style='italic'>v</tspan></text><text x="195.6" y="304.5" font-size="15" fill="#000000" text-anchor="middle" font-weight="500"><tspan font-style='italic'>u</tspan></text><text x="450.8" y="306.5" font-size="15" fill="#000000" text-anchor="middle" font-weight="500"><tspan font-style='italic'>y</tspan></text><text x="337.2" y="371.1" font-size="15" fill="#000000" text-anchor="middle" font-weight="500"><tspan font-style='italic'>x</tspan></text><text x="96.0" y="387.1" font-size="15" fill="#000000" text-anchor="middle" font-weight="500"><tspan font-style='italic'>a</tspan></text><text x="323.2" y="472.0" font-size="15" fill="#000000" text-anchor="middle" font-weight="500"><tspan font-style='italic'>b</tspan></text><text x="550.4" y="387.1" font-size="15" fill="#000000" text-anchor="middle" font-weight="500"><tspan font-style='italic'>c</tspan></text><text x="664.0" y="217.2" font-size="15" fill="#000000" text-anchor="middle" font-weight="500"><tspan font-style='italic'>d</tspan></text><text x="380.0" y="500.0" font-size="15" fill="#3f4a54" text-anchor="middle" font-weight="400" font-style="italic">each red arc is a cut; darker = more edges crossed</text><text x="380.0" y="530.0" font-size="16" fill="#000000" text-anchor="middle" font-weight="600">scanwidth = the darkest cut</text></svg>