<?xml version="1.0" encoding="UTF-8" standalone="no"?>
<svg
   version="1.1"
   id="Layer_1"
   x="0px"
   y="0px"
   width="100%"
   viewBox="0 0 1280 1280"
   enable-background="new 0 0 1280 1280"
   xml:space="preserve"
   sodipodi:docname="phylozoo_main.svg"
   inkscape:version="1.3.2 (091e20e, 2023-11-25)"
   xmlns:inkscape="http://www.inkscape.org/namespaces/inkscape"
   xmlns:sodipodi="http://sodipodi.sourceforge.net/DTD/sodipodi-0.dtd"
   xmlns="http://www.w3.org/2000/svg"
   xmlns:svg="http://www.w3.org/2000/svg"><defs
   id="defs50" /><sodipodi:namedview
   id="namedview50"
   pagecolor="#ffffff"
   bordercolor="#000000"
   borderopacity="0.25"
   inkscape:showpageshadow="2"
   inkscape:pageopacity="0.0"
   inkscape:pagecheckerboard="0"
   inkscape:deskcolor="#d1d1d1"
   inkscape:zoom="0.60546875"
   inkscape:cx="165.9871"
   inkscape:cy="600.36129"
   inkscape:window-width="1920"
   inkscape:window-height="1003"
   inkscape:window-x="0"
   inkscape:window-y="0"
   inkscape:window-maximized="1"
   inkscape:current-layer="Layer_1" />

<path
   fill="#3C7299"
   opacity="1.000000"
   stroke="none"
   d=" M384.089233,937.141846   C368.494507,921.744446 353.239563,906.517212 337.881836,891.394409   C331.424652,885.035950 324.695038,878.954590 318.207672,872.625977   C316.223480,870.690125 314.903625,870.754700 312.786377,872.580994   C303.512421,880.580444 295.014740,889.310059 286.911163,898.485046   C275.768799,911.100525 254.759689,908.698547 246.825272,896.711670   C237.122559,882.053406 228.760086,866.739136 220.795959,851.100647   C215.804489,841.299377 211.496979,831.231384 207.162613,821.178955   C198.527649,801.152466 192.128769,780.275635 186.438873,759.289490   C181.732193,741.929626 178.353058,724.158630 176.037384,706.256714   C175.714539,703.760803 174.504578,702.555664 172.125977,701.839661   C156.906326,697.258545 145.593506,687.646118 137.719238,674.057434   C134.177948,667.946106 131.583221,661.135864 131.207581,654.101074   C130.610214,642.914612 130.326385,631.726135 135.381363,621.009766   C142.525620,605.864197 153.659317,595.187134 169.113907,589.208862   C173.603455,587.472229 174.870346,585.228638 175.196411,580.557495   C175.961487,569.596802 177.553360,558.718445 179.766525,547.888916   C182.359360,535.201660 184.734802,522.463867 188.040909,509.949860   C193.269730,490.158112 199.190506,470.541901 207.103149,451.645874   C213.812454,435.623535 220.897919,419.762817 229.607803,404.643036   C235.248505,394.851166 240.357361,384.727509 246.446487,375.205475   C256.616028,359.302490 267.362061,343.799042 279.314972,329.139160   C288.163849,318.286316 297.381897,307.726990 307.270966,297.889893   C320.468994,284.761200 334.016998,271.993347 348.716919,260.390991   C360.827637,250.832260 373.135162,241.546173 385.907837,233.014557   C398.107941,224.865402 410.883667,217.504532 424.034363,210.792816   C435.443878,204.969742 446.953583,199.411011 458.650177,194.236328   C470.476959,189.004059 482.838348,185.184052 495.043365,180.941864   C504.816101,177.545044 514.746765,174.700470 524.740417,172.204330   C540.488708,168.270844 556.458679,165.270203 572.554443,163.035492   C573.207947,162.944748 573.884460,162.711868 574.513916,162.801270   C585.729614,164.394165 589.752625,155.845688 594.964844,148.641113   C602.928711,137.632996 614.234985,131.061325 627.138672,128.275253   C649.925720,123.355232 672.486694,130.143784 687.393616,149.718689   C699.620056,165.773743 703.186707,183.384750 697.907898,202.709122   C693.518799,218.776443 683.566711,231.039948 669.085144,238.689194   C658.368958,244.349472 646.682495,247.184479 633.923279,245.298203   C619.939758,243.230896 608.465942,236.986282 598.385986,227.717804   C594.283142,223.945267 590.872803,219.280533 588.790100,214.074280   C587.180908,210.051819 584.419434,209.426819 580.991516,210.024521   C571.304810,211.713455 561.620911,213.451218 551.997620,215.464661   C528.689087,220.341476 505.934937,227.296448 483.933655,236.259216   C467.414734,242.988632 451.286499,250.748428 435.717865,259.642853   C418.589935,269.428131 402.263611,280.377960 386.609192,292.284332   C378.756012,298.257233 371.009735,304.478485 363.949005,311.474884   C355.862701,319.487579 347.225616,326.964294 339.403290,335.219147   C324.938812,350.483398 311.608063,366.663147 299.775635,384.149292   C290.101501,398.445923 280.999847,413.023376 272.925598,428.252258   C263.464172,446.097565 255.183441,464.472137 247.946411,483.346924   C241.298950,500.684113 235.730865,518.377563 231.500031,536.389282   C228.203629,550.422852 225.453339,564.665833 223.933884,579.070190   C223.640289,581.853516 223.918655,584.910583 222.831924,587.350952   C220.753586,592.018127 223.564178,593.738464 226.608856,595.966248   C241.949371,607.190674 250.815872,621.857727 251.059387,641.361755   C251.195084,652.229919 250.553513,662.740967 245.159149,672.555664   C240.630005,680.796082 235.005753,688.063354 227.100250,693.153442   C224.055191,695.114014 223.325577,697.097900 223.955917,700.304321   C225.977112,710.585266 228.214645,720.820801 230.364853,731.070435   C234.315460,749.902222 240.068314,768.198486 246.382645,786.262268   C251.221100,800.103821 257.021820,813.693909 263.857056,826.760254   C266.056305,830.964355 268.147797,835.229858 270.135651,839.537903   C271.554047,842.611633 273.104004,842.493408 275.319885,840.321716   C282.048584,833.727234 289.402557,827.831421 297.164001,822.552368   C312.622040,812.038574 329.159363,803.444946 346.452698,796.346191   C363.056732,789.530457 380.603638,786.029419 398.025909,782.209045   C404.255463,780.843079 410.768158,780.802490 417.134552,780.018188   C426.887238,778.816711 436.675659,778.997437 446.466705,778.957214   C448.801544,778.947632 450.283356,779.701843 450.852661,781.906555   C454.005737,794.117554 457.113007,806.340332 460.245911,818.556519   C460.327240,818.873535 460.581970,819.147339 460.656525,819.464661   C462.399719,826.883972 462.324219,827.139832 454.856384,826.936768   C443.733734,826.634399 432.725586,827.863647 421.701538,828.974854   C420.919098,829.053772 419.808014,829.050476 419.451935,829.531311   C418.664490,830.594543 419.801147,831.343445 420.474243,831.974426   C424.945740,836.165894 429.528687,840.240051 433.949158,844.483948   C441.807739,852.028687 449.576660,859.666931 457.597656,867.504639   C451.143921,873.607361 445.148224,880.168701 438.654205,886.212524   C437.299072,887.473755 435.702820,888.329895 433.402374,888.277588   C430.454071,887.653381 428.770569,885.752136 427.005646,884.003845   C412.941528,870.072144 398.328461,856.699219 384.557495,842.474365   C381.480621,839.295959 378.687378,838.387146 374.465210,840.219360   C366.234314,843.791382 357.765564,846.805542 349.700653,850.788696   C346.620300,852.310120 346.233063,853.663269 348.879395,856.219788   C367.663025,874.366089 385.917328,893.057983 405.130646,910.762451   C406.858521,912.354553 408.507080,914.021423 408.362122,916.978149   C402.250916,922.764526 396.384460,928.329407 391.255829,934.635010   C389.535950,936.749634 387.442017,938.387085 384.089233,937.141846  z"
   id="path2" />
<path
   fill="#FEC93B"
   opacity="1.000000"
   stroke="none"
   d=" M1040.502930,384.821655   C1047.639648,393.195679 1051.773193,402.878082 1056.705200,412.132263   C1063.232544,424.379944 1068.750488,437.085663 1074.166138,449.809967   C1078.620728,460.276337 1082.814453,470.873474 1086.233154,481.806000   C1089.407959,491.959045 1092.401733,502.132935 1095.218262,512.389099   C1099.554443,528.178162 1102.592651,544.181946 1105.206055,560.328552   C1106.073730,565.690125 1105.680176,571.069946 1106.719727,576.434387   C1107.342529,579.647583 1108.091309,581.111938 1111.051636,582.047974   C1122.477051,585.660400 1131.708740,592.695068 1139.135620,601.816040   C1145.611450,609.768982 1149.670044,618.905457 1151.183228,629.372742   C1152.478516,638.333191 1152.083252,647.069031 1149.844849,655.563843   C1146.589600,667.917419 1139.765381,678.151184 1129.573486,686.236633   C1123.732544,690.870422 1117.501221,694.249817 1110.412109,696.334656   C1108.626587,696.859802 1107.097900,697.754395 1106.903076,700.399414   C1105.996094,712.715515 1103.781128,724.805420 1101.284302,736.934875   C1097.732666,754.188965 1093.133057,771.088013 1088.083618,787.922363   C1081.862305,808.663635 1073.220825,828.426880 1063.958740,847.912354   C1053.912720,869.047485 1041.951294,889.171082 1028.722046,908.427979   C1018.948792,922.654114 1008.063171,936.117737 996.557556,949.068115   C987.553223,959.203064 978.653564,969.428711 968.730896,978.660767   C954.120422,992.254272 939.321716,1005.599670 923.216370,1017.514832   C907.448181,1029.180420 891.305054,1040.270020 874.307007,1049.938599   C855.716614,1060.512939 836.637573,1070.200195 816.713135,1078.242676   C801.184692,1084.510742 785.539246,1090.415771 769.472778,1094.943237   C753.798645,1099.360229 738.093140,1103.883179 721.848938,1106.075806   C715.628479,1106.915527 709.537415,1108.698242 703.374084,1109.987183   C702.075439,1110.258667 701.331238,1110.881226 701.008789,1112.157349   C696.624756,1129.508789 685.906433,1141.959473 669.993713,1149.311401   C651.721191,1157.753662 633.440552,1157.177490 615.404663,1147.224976   C600.752258,1139.139404 591.137878,1127.481079 586.918396,1111.424927   C584.699402,1102.981079 584.935364,1094.453125 585.703918,1085.684937   C586.539612,1076.152222 590.309875,1068.317505 595.601990,1060.937500   C605.769165,1046.759033 619.010498,1037.583740 636.912964,1035.942993   C645.071777,1035.195190 653.379761,1034.887085 661.051575,1037.186768   C673.672485,1040.969971 684.798828,1047.750000 692.478394,1058.987915   C696.249329,1064.506104 701.529236,1061.511475 705.404663,1060.539673   C724.150757,1055.838867 743.213684,1052.530640 761.665588,1046.398071   C774.966492,1041.977417 788.129333,1037.326294 801.049561,1031.963013   C813.071716,1026.972534 824.841797,1021.452393 836.349365,1015.312927   C852.192993,1006.860229 867.181458,997.172424 881.855347,986.834412   C895.467712,977.244263 908.550049,967.041077 920.860962,955.902283   C930.327637,947.336914 939.212280,938.145142 948.002869,928.830750   C959.244202,916.919373 969.920227,904.600647 979.768188,891.579468   C985.615845,883.847717 990.787231,875.576782 995.897888,867.322327   C1002.444397,856.748657 1009.337830,846.295654 1014.768616,835.150757   C1020.667725,823.044861 1026.691284,810.968079 1031.504395,798.288391   C1036.369263,785.472534 1041.256470,772.692322 1045.038452,759.524536   C1050.031616,742.139282 1054.942505,724.728271 1057.072144,706.672363   C1057.525879,702.825378 1058.988037,699.132202 1059.052124,695.162231   C1059.098389,692.296326 1058.372437,690.535767 1055.683960,688.798340   C1043.063843,680.642273 1034.156982,668.929932 1031.577271,654.428467   C1029.314819,641.709595 1029.144775,628.453186 1035.306763,615.812500   C1038.317871,609.635559 1041.520264,603.864197 1045.769409,598.546265   C1048.316650,595.358154 1051.273438,592.569641 1054.819946,590.772644   C1058.366821,588.975403 1059.693848,586.488770 1058.963135,582.860962   C1056.344360,569.859070 1054.335327,556.752563 1051.587646,543.758240   C1048.606689,529.661438 1044.688599,515.837402 1040.708740,502.069824   C1038.004761,492.715820 1034.576050,483.395081 1030.621704,474.437744   C1025.859863,463.651489 1021.776062,452.543793 1016.038818,442.188446   C1013.872070,438.277588 1011.979004,434.215088 1009.641113,430.064026   C1007.562195,426.924194 1009.993103,425.273376 1011.564392,423.594116   C1016.565063,418.249817 1021.889893,413.217834 1027.237793,407.736115   C1027.764526,407.160828 1028.069336,406.841370 1028.583862,406.277100   C1029.488037,405.232544 1030.145020,404.405396 1030.871948,403.229614   C1032.163086,401.395660 1033.499023,399.978485 1034.410400,397.895874   C1034.891602,396.845825 1035.332764,396.129761 1035.792358,395.073120   C1036.094849,394.401031 1036.293823,394.028595 1036.647949,393.376038   C1037.231323,392.312836 1037.473145,391.482697 1037.488770,390.231384   C1037.572021,388.380615 1037.258667,386.830231 1038.389282,385.148682   C1039.121338,384.541626 1039.629639,384.455505 1040.502930,384.821655  z"
   id="path3" />
<path
   fill="#3C7299"
   opacity="1.000000"
   stroke="none"
   d=" M503.662048,701.636108   C503.994751,721.010132 506.742706,739.644348 510.693604,758.245789   C513.520996,771.557495 516.817139,784.701782 520.357971,797.819336   C526.204285,819.478149 531.952637,841.181702 535.839539,863.289612   C540.009583,887.008240 541.524048,911.050964 539.757202,935.000671   C538.264038,955.239624 534.232300,975.204773 526.959595,994.405823   C521.120728,1009.821167 513.921814,1024.585815 504.706879,1038.096802   C497.182861,1049.128418 489.791321,1060.555420 479.226166,1069.208862   C470.146271,1076.645874 455.466827,1078.476074 445.672028,1066.081177   C435.504211,1053.214600 436.930328,1041.005859 448.186554,1029.124512   C453.066071,1023.974060 458.791351,1019.200623 461.023376,1011.585327   C468.270660,1002.751648 474.026550,993.474915 476.894135,982.211304   C481.135681,968.370483 485.483154,954.936279 487.110870,940.409546   C488.136658,938.053772 488.848755,936.086609 489.088959,933.863770   C490.359741,922.105286 490.712616,910.375366 488.929749,898.357300   C491.337891,892.397644 488.421570,887.107117 487.852905,881.684082   C486.175110,865.684998 482.813019,849.938721 478.896301,834.355530   C475.063873,819.107483 470.163452,804.121277 466.544403,788.827881   C462.660187,772.413940 458.732697,755.979187 456.978455,739.116333   C455.420715,724.142761 453.146210,709.172363 454.138184,694.117554   C455.325928,676.091431 455.967896,658.048218 460.535126,640.268799   C463.049530,630.480469 464.970795,620.443115 468.152924,610.854858   C472.683380,597.203796 478.181610,583.916504 485.149689,571.213196   C492.264313,558.242798 499.652008,545.498840 509.056946,534.068787   C518.992737,521.993591 529.495117,510.537109 541.657898,500.474701   C553.737793,490.480896 566.158936,481.109039 579.560547,473.051392   C587.159241,468.482727 595.023193,464.410095 603.165222,460.775543   C612.283020,456.705444 621.362610,452.756134 630.837769,449.485992   C645.464478,444.437927 660.391174,440.765442 675.544617,438.114105   C699.447876,433.931793 723.632751,433.524933 747.842163,433.918488   C750.495911,433.961639 751.946411,435.027435 752.611023,437.294617   C756.801270,451.589355 760.778992,465.948761 765.173706,480.179657   C766.260498,483.698883 764.610901,484.398163 762.265991,483.850159   C755.744690,482.326202 749.110535,483.172852 742.545349,482.458832   C735.304565,481.671356 727.842590,481.413177 720.631592,482.252808   C712.303101,483.222534 703.920593,483.757721 695.593750,484.698120   C680.632385,486.387909 666.270020,490.078430 651.992249,494.444336   C629.209717,501.410889 608.169983,512.005188 589.016052,526.073792   C574.670410,536.610718 561.399170,548.379517 550.492859,562.703125   C544.832764,570.136719 538.925964,577.377686 534.239319,585.461426   C525.285645,600.904968 518.051208,617.144531 513.067505,634.305542   C509.084015,648.022461 505.964783,661.905518 504.859955,676.241516   C504.479095,681.183411 504.037659,686.117065 503.845886,691.536499   C503.176514,695.073608 503.615051,698.178101 503.662048,701.636108  z"
   id="path4" />
<path
   fill="#FDC93C"
   opacity="1.000000"
   stroke="none"
   d=" M684.676941,307.230774   C694.578979,315.280060 704.190308,323.111298 713.780823,330.967865   C718.951721,335.203918 724.127563,339.435669 729.223511,343.760834   C732.304443,346.375702 732.341980,348.316437 728.255005,350.395813   C711.160339,359.093262 694.222168,368.097656 677.200439,376.939087   C669.918091,380.721710 662.482727,384.218842 655.293945,388.168121   C651.963623,389.997711 652.033203,388.239258 652.042053,385.910614   C652.058411,381.590790 654.353760,377.864532 655.192688,373.708130   C657.171082,363.906921 657.493896,363.858093 647.703430,363.992249   C627.394470,364.270538 607.340942,366.145874 587.387085,370.599609   C570.444092,374.381348 553.894836,379.239075 538.337280,386.538483   C519.169983,395.531433 500.830475,406.163940 484.395813,419.889954   C473.885651,428.667969 463.368622,437.394470 454.104645,447.470764   C441.414581,461.273560 430.435455,476.363342 420.230743,492.128815   C410.337372,507.413330 403.413757,524.033203 396.937378,540.794617   C391.433441,555.039124 387.371887,569.860413 384.942444,585.065613   C383.006958,597.179382 381.704376,609.302246 380.627838,621.533752   C379.411346,635.355469 381.265717,648.911072 381.159210,662.586792   C381.116669,668.052917 383.083160,673.491333 383.035858,679.100220   C383.013428,681.760010 384.588867,682.640381 387.017212,681.510620   C392.114441,679.139282 397.258545,676.846252 402.211609,674.199524   C403.939972,673.275879 405.876068,671.257996 407.361633,672.315308   C408.781006,673.325562 407.722107,675.736450 407.156372,677.713074   C402.728455,693.184326 396.967621,708.174072 391.410339,723.251770   C387.516602,733.815979 384.367950,744.654724 380.883148,755.369812   C379.408356,759.904419 377.137970,760.513672 373.770172,757.234192   C360.207367,744.027344 346.685883,730.777954 333.092133,717.603027   C327.035004,711.732544 320.854980,705.988464 314.702240,700.217285   C313.458405,699.050537 312.178864,697.658630 312.743805,696.041626   C313.361938,694.272461 315.354248,695.072510 316.752563,695.054504   C322.583679,694.979431 328.418304,694.921936 334.247498,695.048889   C337.502930,695.119751 338.503845,693.448364 337.904602,690.685913   C335.613708,680.125610 335.322601,669.324890 333.846710,658.682068   C332.834625,651.383789 333.203339,644.158691 333.036224,636.902100   C332.600067,617.967041 334.815857,599.254822 337.964355,580.624756   C340.579163,565.152466 343.856445,549.835266 348.998993,534.988220   C352.459045,524.998657 356.514771,515.227661 360.433746,505.417084   C366.578674,490.034210 374.605927,475.768890 383.221313,461.891998   C392.128021,447.545837 401.954132,433.739471 413.811310,421.416931   C422.809784,412.065216 431.600769,402.531372 441.470764,394.104980   C456.534790,381.244202 472.143585,369.152435 489.337585,359.120941   C508.242950,348.090973 528.082764,339.116425 548.757629,332.270294   C564.336365,327.111664 580.401062,323.508026 596.707642,320.812103   C617.653625,317.349121 638.642883,316.726257 659.741943,317.066132   C662.423584,317.109314 663.204895,316.276398 663.042358,313.685791   C662.681641,307.938904 661.334717,302.233826 662.078918,296.444397   C662.265869,294.990356 660.899841,292.953796 663.118591,292.141510   C664.911133,291.485229 666.040100,292.844604 667.378845,293.917786   C672.960266,298.392029 678.697510,302.672058 684.676941,307.230774  z"
   id="path5" />
<path
   fill="#FDC93D"
   opacity="1.000000"
   stroke="none"
   d=" M748.025085,707.373535   C761.142334,689.784546 772.238892,671.176147 780.320374,650.987671   C784.724060,639.986755 788.703430,628.525146 790.605591,616.900146   C792.307129,606.500732 793.988892,595.950317 794.345459,585.218750   C794.596619,577.660461 794.472473,570.205078 793.997253,562.709473   C793.069397,548.074951 790.955383,533.617188 788.080811,519.225952   C784.480164,501.200104 780.185181,483.337006 774.899109,465.769226   C769.459534,447.691040 764.494141,429.471466 761.369873,410.926941   C759.813538,401.688721 758.499207,392.238068 757.741272,382.756439   C756.705688,369.800781 756.893799,356.887085 757.220886,344.002716   C757.471375,334.137909 759.367493,324.287537 760.746765,314.451080   C762.399780,302.662201 765.326172,291.332153 768.981995,280.114929   C772.929565,268.002472 778.790894,256.781555 784.767212,245.551056   C791.251221,233.366409 799.710632,222.583084 807.332764,211.207031   C814.188721,200.974640 828.979492,196.389801 840.039246,201.710571   C847.489929,205.295029 851.888428,211.552032 853.112610,220.248276   C854.590576,230.747452 850.372437,238.664841 843.604614,245.861450   C843.148499,246.346481 842.644958,246.789246 842.211182,247.292755   C837.390808,252.887939 837.229980,253.066666 842.622559,258.058685   C855.782410,270.241119 868.247253,283.131195 881.168823,295.548431   C893.627991,307.521240 906.199402,319.369232 918.462402,332.090576   C913.527222,339.716827 907.021301,345.942474 900.461670,352.110229   C899.500427,353.014069 898.176941,353.392639 896.446106,353.406036   C893.145325,353.272003 891.313354,351.256927 889.397034,349.425629   C868.364746,329.325592 847.434814,309.119598 826.674683,288.738129   C822.767639,284.902313 821.982788,284.900940 820.050415,290.168304   C816.965332,298.577698 813.880981,306.985229 812.375183,315.925751   C811.473083,321.281830 812.738403,325.131195 816.733887,328.746155   C831.780579,342.359375 845.892578,356.958160 860.691162,370.840363   C864.363647,374.285492 868.975891,377.126831 870.382263,382.838043   C864.442566,388.353729 859.861023,394.753845 854.059875,399.972351   C852.084412,401.749420 850.203918,403.777191 846.742249,402.821228   C833.211853,390.176514 820.044800,377.559662 805.922852,364.027893   C806.060547,376.252472 807.658630,386.749634 809.097717,397.215240   C811.674866,415.957520 817.172119,434.093781 822.274048,452.227325   C827.115051,469.433716 832.377014,486.562592 835.735291,504.079407   C838.548950,518.755493 840.938110,533.565186 842.192261,548.564087   C843.524902,564.500977 843.450256,580.440735 842.675476,596.271423   C842.030212,609.455139 839.509460,622.614502 836.909607,635.702515   C832.745239,656.666565 824.502136,676.045471 815.259705,694.957336   C808.964172,707.839417 801.524597,720.304443 791.745911,731.137329   C789.631897,733.479187 788.236328,736.531799 785.433838,738.818604   C781.184448,740.782043 780.831848,738.137817 781.120972,735.411255   C781.469910,732.121643 781.936462,728.943665 781.227539,725.585022   C778.689331,713.559631 768.268921,706.366394 756.217041,708.513245   C753.493530,708.998413 750.673157,710.044189 748.025085,707.373535  z"
   id="path6" />
<path
   fill="#FEC93B"
   opacity="1.000000"
   stroke="none"
   d=" M876.672913,591.051331   C873.876404,589.984314 873.893677,589.990356 874.644775,587.852661   C879.870117,572.981018 885.108826,558.114075 890.300171,543.230591   C893.581909,533.821777 896.356506,524.224487 900.493042,515.136658   C901.241943,513.491516 900.711060,511.895813 901.218689,510.300842   C902.748291,505.494385 905.197266,504.799683 908.754028,508.347473   C926.034607,525.583984 943.305542,542.830139 960.585266,560.067505   C962.853027,562.329712 964.919617,564.902283 967.525696,566.674866   C969.014648,567.687622 969.070129,568.595459 968.898193,569.842896   C968.646790,571.667114 967.097656,570.918945 966.119873,570.930115   C959.621643,571.004028 953.113708,571.172852 946.626892,570.893066   C943.305664,570.749817 942.386414,572.063904 943.062927,574.893311   C946.152771,587.814026 946.492065,601.070740 948.085632,614.176025   C949.839478,628.599304 949.461426,643.078308 948.734863,657.427429   C947.881592,674.278687 945.921753,691.136230 941.813660,707.646912   C938.542908,720.792236 935.357544,733.997803 930.561157,746.633972   C926.525269,757.266602 922.140747,767.803955 916.791504,777.958374   C911.675720,787.669556 906.690796,797.446838 900.660645,806.595703   C893.347107,817.691956 885.575745,828.463440 877.005127,838.687622   C871.254089,845.548035 865.133423,852.137695 858.804504,858.293152   C848.490356,868.324463 838.169922,878.459167 826.103760,886.675293   C817.694031,892.401733 809.660034,898.769104 800.885437,903.920288   C790.114380,910.243652 778.987061,915.920044 767.692017,921.351013   C751.100403,929.328735 733.866638,935.240540 716.279785,940.254639   C702.875305,944.076477 689.063232,945.975525 675.301514,948.201416   C663.431152,950.121399 651.625061,949.907715 639.765503,949.905334   C636.626282,949.904724 635.661072,950.775757 635.966492,953.824707   C636.571777,959.866821 636.830811,965.945374 637.521790,971.975769   C637.669128,973.261658 638.479370,974.873352 637.528076,975.619202   C636.432922,976.477783 634.793701,976.131104 633.474121,975.102661   C629.496826,972.002869 625.413513,969.038696 621.448242,965.924072   C613.382446,959.588440 605.603333,952.857666 597.266907,946.904724   C588.156982,940.399414 579.180054,933.727661 570.190735,927.063660   C565.808777,923.815308 565.819580,923.474304 570.426697,920.834351   C577.286377,916.903809 583.966614,912.661499 590.788269,908.662842   C603.722534,901.081421 616.701599,893.576416 629.665039,886.044800   C633.713989,883.692444 637.739563,881.296204 641.849487,879.055054   C642.930664,878.465393 644.303223,877.302551 645.471191,878.204590   C646.574341,879.056458 646.162354,880.782166 645.867004,881.975159   C644.550842,887.291504 643.126038,892.586853 641.523315,897.823303   C640.917419,899.803101 640.321899,902.052856 641.518188,903.454773   C642.642883,904.772705 644.751892,903.649109 646.534790,903.305176   C651.688354,902.311157 657.031738,902.501953 662.239197,902.244629   C674.873596,901.620300 687.007690,898.600464 699.144653,895.802490   C718.326294,891.380493 736.806824,884.460632 754.368958,875.675110   C772.331055,866.689453 789.058655,855.552490 804.744812,842.864868   C820.985535,829.728577 834.752808,814.420227 847.680420,798.067627   C858.473816,784.414856 867.306763,769.614868 875.530762,754.488037   C880.702271,744.975952 884.335693,734.559387 888.217773,724.331177   C894.641235,707.406860 897.945740,689.808594 900.760742,672.169373   C902.949951,658.451965 902.000854,644.375549 902.049683,630.442749   C902.102234,615.461548 900.400574,600.678833 898.076782,585.918335   C897.522217,582.395874 896.053223,583.669495 894.131775,584.348816   C888.368469,586.386719 883.351440,590.346313 876.672913,591.051331  z"
   id="path7" />
<path
   fill="#3D7299"
   opacity="1.000000"
   stroke="none"
   d=" M747.551270,707.201050   C750.319763,708.115662 752.730408,707.187195 755.146484,706.744263   C772.707825,703.525269 786.232056,717.131287 783.209106,734.809509   C783.006104,735.996643 779.981262,738.813843 784.772400,739.015137   C772.230957,754.563538 757.680176,768.464783 741.177307,780.111267   C723.480957,792.600159 704.837891,803.381958 684.545654,811.456665   C671.403137,816.686279 658.096313,821.451294 644.429443,824.403503   C630.534241,827.405090 616.516968,830.358215 602.126038,831.167175   C591.244507,831.778809 580.411682,833.268555 569.463928,832.978516   C561.873657,832.777344 554.353210,831.955566 546.816956,831.097900   C544.091309,830.787720 542.858948,829.501465 542.309326,827.344788   C538.714478,813.238525 535.321350,799.080139 531.628357,785.000122   C530.898132,782.216187 531.983154,781.653625 534.125793,781.790405   C540.541565,782.200012 546.956665,782.662109 553.356750,783.266357   C565.762146,784.437561 578.146118,784.418091 590.561890,783.307068   C597.115723,782.720581 603.633545,781.976257 610.160522,781.144897   C620.777039,779.792603 631.031982,776.970703 641.335083,774.326538   C654.065613,771.059326 666.460083,766.650635 678.199097,760.810913   C691.883301,754.003540 704.935730,746.027893 716.999634,736.542725   C727.173523,728.543640 736.320557,719.447266 745.313843,710.185669   C746.098389,709.377808 746.620544,708.315247 747.551270,707.201050  z"
   id="path8" />
<path
   fill="#3E7399"
   opacity="1.000000"
   stroke="none"
   d=" M1032.234131,403.860229   C1031.487305,405.000793 1030.907471,405.831329 1030.061035,406.816315   C1029.692383,407.151459 1029.590332,407.332184 1029.230713,407.687439   C1024.888794,413.483337 1019.554077,417.922668 1014.775452,422.887665   C1012.845093,424.893372 1010.604004,426.640198 1009.371094,429.589783   C999.265320,439.992706 987.481934,447.720337 975.297058,454.917908   C965.648193,460.617462 955.360474,465.020050 945.277283,469.834991   C943.236755,470.809418 940.952942,471.274353 938.094971,472.017395   C936.965271,472.030548 936.521484,472.028625 935.713867,472.102600   C915.413513,479.277069 894.890259,483.648712 873.805237,485.534393   C867.347717,486.111908 860.910461,486.588715 854.421448,486.541901   C850.990967,486.517120 848.750671,484.987427 847.255676,482.100220   C846.106506,479.880829 845.314941,477.510834 844.529602,475.144135   C840.998047,464.500122 838.871338,453.447449 835.154175,442.855408   C834.934265,442.228668 835.311829,441.560028 835.881348,440.637146   C836.991394,439.430664 838.118469,439.518860 839.591858,439.327759   C840.159851,439.165009 840.341614,439.135651 840.795654,439.152893   C841.714539,439.542206 842.447998,439.485260 843.479248,439.750427   C855.604004,440.426849 867.333557,439.741211 879.041565,438.480469   C880.245789,438.350800 881.459961,438.094116 881.962585,436.915741   C882.660583,435.279144 881.223206,434.563751 880.243103,433.727112   C872.795715,427.369629 866.204651,420.115784 859.029236,413.471283   C854.996094,409.736542 854.997253,407.497772 858.589661,403.260345   C860.100830,401.477844 861.700806,399.752197 863.814575,398.692383   C866.538696,397.326660 868.699707,395.558990 870.377991,392.870575   C872.486755,389.492706 874.443054,389.487427 877.765076,392.175385   C883.328491,396.676941 888.231018,401.888123 893.442993,406.766754   C899.589661,412.520508 905.023560,418.968323 911.397522,424.504761   C916.821960,429.216492 916.770508,429.436096 923.554077,426.502869   C924.314636,426.174042 925.039612,425.751038 926.108582,425.541687   C926.350037,425.492828 926.713989,425.299530 926.721558,425.077667   C926.630554,424.516144 926.617432,424.169861 926.757568,423.522644   C928.552002,420.917053 930.912476,420.082062 934.001343,420.183655   C936.717407,422.108978 938.065186,420.108063 939.838013,418.625122   C940.333374,418.087433 940.564270,417.741486 940.942017,417.116516   C941.268250,416.710022 941.411682,416.558380 941.797668,416.209869   C942.384888,415.783325 942.746643,415.584503 943.407471,415.302979   C943.886963,415.147217 944.082642,415.101624 944.572754,415.032104   C945.058044,415.020294 945.249084,415.032379 945.709717,415.092651   C946.316589,415.217438 946.657288,415.250092 947.241272,415.088196   C947.654175,414.862671 947.828613,414.770813 948.299561,414.584106   C949.495239,414.055481 950.420715,413.660614 951.244812,413.096497   C955.129395,410.436890 955.234741,409.737274 951.806824,406.318115   C938.964478,393.508362 926.144592,380.678314 912.872803,368.303314   C907.017151,362.843353 907.707153,358.837433 914.370544,354.409546   C918.077515,351.946198 921.922424,349.664062 924.764587,346.001923   C927.437988,342.557312 930.035583,344.579681 932.305359,346.825745   C939.633362,354.077301 947.010071,361.278687 954.377869,368.489258   C961.740051,375.694397 969.830994,382.139618 976.695435,389.845001   C978.556213,391.933655 979.889954,391.452881 981.701111,389.935791   C985.795105,386.506317 989.311951,382.532318 992.754761,378.494934   C997.005676,373.509796 1001.630249,369.134308 1007.822144,366.521088   C1012.551270,364.525208 1017.094849,364.217743 1021.756042,366.385162   C1024.704224,367.755981 1028.478760,367.217255 1031.050415,370.331635   C1031.398682,370.405151 1031.553101,370.433411 1031.584229,370.505463   C1036.978149,375.995422 1037.508545,382.961548 1038.005859,390.312469   C1038.376099,391.072662 1038.483887,391.533600 1038.452393,392.372925   C1038.117310,393.363068 1037.606567,393.882751 1037.242065,394.887451   C1036.949219,396.026947 1036.796631,396.843658 1036.393311,397.856628   C1033.618652,399.016357 1032.743652,401.102112 1032.234131,403.860229  z"
   id="path9" />

<path
   fill="#FDCC40"
   opacity="1.000000"
   stroke="none"
   d=" M637.397339,645.083435   C616.186157,626.845276 597.384460,606.468933 577.596008,587.103516   C572.510742,582.126892 566.876587,577.716675 562.457886,572.047119   C561.203064,570.437134 560.372925,569.416748 562.001465,567.435730   C567.269409,561.027771 573.359070,555.421631 579.036011,549.415588   C581.895874,546.389893 583.365112,548.981934 585.054504,550.585327   C608.128601,572.485291 630.599365,594.998718 653.036865,617.545593   C655.495605,620.016296 657.905518,622.535583 660.635620,625.298035   C654.389954,630.046021 648.304932,635.024170 643.360046,641.308167   C641.939941,643.112915 640.262085,644.765442 637.397339,645.083435  z"
   id="path11" />
<path
   fill="#3E7097"
   opacity="1.000000"
   stroke="none"
   d=" M637.168701,645.420410   C643.262878,638.947449 649.502136,632.795776 655.690125,626.593079   C656.961548,625.318604 658.242615,624.514404 660.498413,625.422119   C678.493896,642.758301 696.028931,659.979187 713.628235,677.134216   C720.465027,683.798401 727.435852,690.325317 734.369995,696.889038   C736.235352,698.654663 736.760437,700.572144 734.868225,702.507690   C729.143921,708.363037 723.356018,714.156982 717.537109,719.918518   C715.578125,721.858215 713.717590,721.219055 711.939819,719.435669   C702.063110,709.527649 692.176636,699.629211 682.258789,689.762451   C672.232056,679.787354 662.093506,669.924438 651.970337,660.051331   C647.087036,655.288696 641.936035,650.752197 637.168701,645.420410  z"
   id="path12" /><path
   fill="#fdcc40"
   opacity="1"
   stroke="none"
   d="m 610.11982,674.12788 c 19.02656,16.0059 35.83938,33.83024 53.56044,50.79302 4.55407,4.35918 9.61324,8.23559 13.55355,13.18544 1.11904,1.40562 5.18793,5.3581 3.68498,7.05006 -4.86164,5.47289 -11.77901,11.21795 -19.015,12.30306 -4.19447,0.629 -3.93495,0.32329 -5.44852,-1.08179 -20.67196,-19.1911 -40.78853,-38.90499 -60.87459,-58.64737 -2.20105,-2.1634 -4.35716,-4.36816 -6.80096,-6.78679 5.72849,-4.02739 11.3139,-8.25549 15.88068,-13.62514 1.3115,-1.54216 2.85521,-2.94976 5.45942,-3.19049 z"
   id="path11-3"
   style="stroke-width:0.885579"
   sodipodi:nodetypes="csssscscsc" /><path
   fill="#3e7097"
   opacity="1"
   stroke="none"
   d="m 612.52042,676.09045 c -5.61871,5.65847 -11.36538,11.03063 -17.06607,16.4486 -1.17131,1.11324 -2.34553,1.80988 -4.38415,0.97859 -16.13732,-15.57171 -31.85759,-31.03574 -47.63711,-46.4422 -6.12985,-5.98493 -11.50793,-9.87963 -17.72756,-15.77677 -1.67309,-1.58632 0.1336,0.20015 0.1336,0.20015 -1.83475,-7.12993 3.01874,-18.20258 8.37853,-23.23434 1.8045,-1.69401 5.5812,-1.84074 11.27724,1.36897 8.8519,8.89462 17.71289,17.78089 26.60269,26.63948 8.9875,8.95585 18.07797,17.81371 27.15436,26.68042 4.37832,4.27716 9.00267,8.3573 13.26849,13.1371 z"
   id="path12-6"
   style="stroke-width:0.89719"
   sodipodi:nodetypes="cscsssscsscc" />
<path
   fill="#FCCB40"
   opacity="1.000000"
   stroke="none"
   d=" M477.872437,982.955688   C478.304535,988.004211 475.510101,991.823181 473.381744,995.807190   C470.891693,1000.468262 468.000305,1004.919434 465.181763,1009.397888   C464.405243,1010.631775 463.806519,1012.709106 461.300537,1011.242188   C458.037933,1008.650696 454.864655,1006.239441 452.030853,1003.479553   C435.290527,987.176636 418.656799,970.764282 401.926147,954.451477   C396.077850,948.749084 390.056366,943.224426 383.952454,937.274048   C385.819122,937.329773 387.055603,936.260559 388.388214,934.860901   C393.295593,929.706482 398.331116,924.673218 403.363312,919.639282   C404.492798,918.509277 405.402466,916.916382 407.751160,917.045654   C410.036682,916.263123 411.285217,917.525818 412.484833,918.613220   C433.990875,938.106689 454.668182,958.458191 475.047028,979.118042   C476.108826,980.194458 476.924683,981.424744 477.872437,982.955688  z"
   id="path13" />
<path
   fill="#FDCB3F"
   opacity="1.000000"
   stroke="none"
   d=" M686.431641,594.414001   C683.969788,593.960999 682.776245,592.304871 681.395081,590.922974   C669.150330,578.671753 657.165894,566.145508 644.582703,554.252563   C635.996887,546.137695 627.478333,537.964233 619.129272,529.612671   C613.504822,523.986450 613.580688,523.930237 620.293762,520.291382   C626.969177,516.672974 633.391235,512.595581 640.842957,510.507111   C642.864075,509.940613 643.749939,510.457764 645.092957,511.568970   C655.083984,519.835327 663.653809,529.566223 673.009521,538.483215   C685.707886,550.586121 698.460510,562.630188 710.772522,575.574280   C703.709961,580.062439 697.908386,585.931763 692.162842,591.878967   C690.715576,593.377014 689.424561,595.410645 686.431641,594.414001  z"
   id="path14" />
<path
   fill="#3C6F96"
   opacity="1.000000"
   stroke="none"
   d=" M686.232483,594.585693   C688.182190,594.316589 689.196289,592.737183 690.474670,591.468201   C695.487671,586.491821 700.644836,581.657104 705.554749,576.582397   C707.114136,574.970642 708.458801,574.794739 710.589966,575.797729   C718.515869,583.307861 725.937073,590.930786 733.711426,598.174805   C745.845154,609.480896 757.063904,621.744934 769.793274,632.428528   C773.638062,635.655396 771.984985,639.994263 770.599243,643.465759   C767.876831,650.285767 765.082825,657.110840 761.251831,663.471375   C759.327087,666.666870 757.861755,665.779297 756.040161,663.852234   C748.343079,655.709656 740.041138,648.189514 732.036316,640.364868   C716.669617,625.344116 701.573364,610.046753 686.232483,594.585693  z"
   id="path15" />
<path
   fill="#FBCA40"
   opacity="1.000000"
   stroke="none"
   d=" M489.020813,897.736694   C492.119110,900.988281 491.964905,904.721619 491.987793,908.444824   C492.043884,917.566223 492.343719,926.690552 491.024261,935.766785   C490.737457,937.739746 490.920288,939.871582 487.950500,940.551025   C485.067291,941.578613 483.719940,939.574402 482.212616,938.149902   C466.720093,923.508972 451.391907,908.698181 436.488556,893.454468   C434.884460,891.813660 432.914124,890.364136 432.875641,887.428589   C434.962280,887.627747 435.974792,886.366516 437.180206,885.138855   C442.186646,880.039490 447.328125,875.072815 452.341583,869.980286   C453.702393,868.598022 455.046570,867.549500 457.454102,867.861938   C464.644348,874.443115 471.438385,881.182556 478.324951,887.825989   C481.736267,891.117004 485.317780,894.231445 489.020813,897.736694  z"
   id="path16" />
<path
   fill="#FCCB41"
   opacity="1.000000"
   stroke="none"
   d=" M735.332886,544.276794   C730.350708,541.337463 727.097107,536.952942 723.153748,533.394836   C713.993774,525.129822 705.558289,516.061951 696.828674,507.319977   C694.359680,504.847473 691.872803,502.392578 689.430115,499.894318   C688.771484,499.220673 687.645996,498.574921 688.269470,497.425354   C688.729065,496.578125 689.570862,496.120514 690.703247,496.027924   C701.618469,495.135376 712.317200,492.067352 723.423279,492.944336   C725.992798,493.147247 728.177979,493.640472 730.028198,495.513245   C739.644409,505.246765 749.294556,514.946777 759.167603,524.929382   C753.374695,530.411133 747.989563,536.289307 742.200378,541.746399   C740.406738,543.437134 738.547913,545.283020 735.332886,544.276794  z"
   id="path17" />
<path
   fill="#FCCC42"
   opacity="1.000000"
   stroke="none"
   d=" M561.573730,724.507629   C568.845703,730.971252 575.394348,737.783875 582.133423,744.402161   C589.036743,751.181824 596.234680,757.682678 603.076782,764.543701   C604.014526,765.484131 605.131287,766.353516 605.745728,767.483765   C606.665771,769.176331 607.087585,770.545654 604.065857,771.027039   C594.795837,772.503723 585.494019,772.787720 576.140015,773.171814   C568.338928,773.492126 562.705078,771.199768 557.584595,765.296692   C551.164551,757.895447 543.869812,751.253052 536.689941,744.025391   C541.597229,736.112610 548.677246,730.280334 555.332947,724.052673   C556.783325,722.695557 558.640930,722.605530 560.737793,723.825562   C561.023376,724.065857 561.021240,723.980408 560.978516,723.979858   C561.071045,724.105164 561.206299,724.230896 561.573730,724.507629  z"
   id="path18" />
<path
   fill="#3C6E95"
   opacity="1.000000"
   stroke="none"
   d=" M735.138916,544.403870   C737.592957,544.018127 739.080933,542.149658 740.706787,540.555847   C745.166321,536.184265 749.561707,531.746948 754.042786,527.397705   C755.283142,526.193726 756.352844,524.447449 758.989990,525.147583   C766.831421,530.677734 772.443542,538.090942 779.473328,544.009216   C783.688904,547.558289 783.585510,553.098938 783.743530,557.725830   C784.057983,566.930542 785.160828,576.255066 783.022644,585.426331   C782.749878,586.596191 783.678589,588.285583 781.856079,588.810364   C780.299927,589.258545 779.516785,587.879028 778.558350,587.015747   C763.552979,573.500122 749.546509,558.962280 735.138916,544.403870  z"
   id="path19" />
<path
   fill="#3C6F95"
   opacity="1.000000"
   stroke="none"
   d=" M560.925537,723.737915   C558.395813,723.390686 556.747559,724.833740 555.048889,726.568054   C549.273560,732.464478 543.828979,738.713440 536.808228,743.739380   C532.055542,739.443542 528.035889,734.667847 523.220825,730.911987   C517.477722,726.432190 515.396362,720.650879 515.033752,713.887146   C514.662170,706.956787 513.451843,700.062012 514.024292,693.090454   C514.306885,689.649109 514.553772,686.193848 515.088745,682.787598   C515.530945,679.972168 517.205139,680.862305 518.541931,682.099976   C520.614929,684.019287 522.532898,686.104919 524.556885,688.078613   C536.640747,699.862305 548.736206,711.634155 560.925537,723.737915  z"
   id="path20" />
<path
   fill="#386A90"
   opacity="1.000000"
   stroke="none"
   d=" M1031.259521,370.109222   C1027.247314,369.219513 1022.800049,369.431458 1018.903809,366.844391   C1016.381531,365.169678 1013.310791,365.827332 1010.339111,367.058014   C999.932861,371.367523 993.180603,379.847015 986.135071,387.955383   C984.551453,389.777863 982.795349,391.171234 980.832153,392.375458   C979.234070,393.355743 977.663757,393.089417 976.391235,391.561554   C967.017090,380.306244 954.445190,372.408905 944.793945,361.414673   C940.637329,356.679657 935.976074,352.378845 931.433411,347.995361   C929.268677,345.906525 927.670593,343.663361 925.100098,348.607971   C923.356689,351.961548 918.665955,354.011078 914.972656,356.067871   C909.774170,358.962982 908.786987,362.552338 913.071289,366.492004   C926.547119,378.883728 939.392212,391.913879 952.342285,404.839661   C958.014221,410.500885 957.853271,411.525238 950.594971,415.159302   C949.726440,415.594147 948.700195,415.713867 947.374878,415.988098   C946.852844,415.813599 946.702820,415.630676 946.469116,415.102753   C946.237793,411.887238 950.967102,411.418518 949.965637,408.850922   C948.851257,405.993591 945.818909,404.207123 943.557861,402.032990   C928.489807,387.544250 913.655518,372.816711 898.699585,358.213623   C897.203735,356.753021 895.209290,355.493683 895.846558,352.642517   C898.593079,352.504913 899.787415,350.551300 901.300110,349.098236   C906.952148,343.669098 911.851685,337.472534 918.428955,332.483246   C928.118225,339.836945 936.113342,348.796173 945.009033,356.809906   C956.089111,366.791473 966.319153,377.721069 976.820496,388.335999   C978.545471,390.079590 979.475647,389.778809 981.254456,388.336456   C987.917175,382.933441 992.865356,375.965668 998.662415,369.781219   C1005.540771,362.443268 1021.106262,362.322266 1029.115967,367.111938   C1030.004761,367.643372 1030.462524,368.895447 1031.259521,370.109222  z"
   id="path21" />
<path
   fill="#35668E"
   opacity="1.000000"
   stroke="none"
   d=" M928.723267,424.972778   C927.486145,426.660156 925.386230,427.353455 923.437256,428.229004   C917.031311,431.106720 915.420654,430.699951 910.280090,425.797821   C898.824280,414.873199 888.318787,402.973572 876.197510,392.724640   C873.921692,390.800293 872.477905,391.255066 871.772949,393.680847   C870.773987,397.118011 868.593567,398.841187 865.339905,399.898651   C861.824097,401.041351 860.180481,404.462311 857.807983,406.953369   C856.302185,408.534363 857.515686,410.065033 858.788757,411.250366   C866.439575,418.373840 872.886780,426.783813 881.621643,432.738770   C883.332031,433.904755 884.323975,435.227509 883.835510,437.279053   C883.351746,439.310791 881.412231,439.530151 879.875427,439.757599   C867.839111,441.538971 855.747314,441.362579 843.318848,440.273407   C843.974426,439.093384 845.215027,439.689209 846.630981,439.307922   C858.120850,439.428894 869.137451,437.697632 881.112488,436.580719   C869.301392,425.130402 857.986694,414.161255 846.525452,402.992767   C848.680359,402.605286 850.330627,401.352753 851.872681,399.717621   C856.436401,394.878571 861.094849,390.128937 865.708740,385.337067   C866.845520,384.156311 867.784851,382.638519 870.205750,383.165619   C873.172607,382.749146 874.461914,384.742432 876.079895,386.085541   C887.236694,395.346649 896.864136,406.200287 907.338318,416.173950   C912.782776,421.358215 917.882568,426.848846 926.757568,423.947632   C927.492554,424.440674 927.970703,424.693756 928.723267,424.972778  z"
   id="path22" />
<path
   fill="#35668E"
   opacity="1.000000"
   stroke="none"
   d=" M937.598572,471.002625   C938.008728,471.193420 938.012634,471.382996 938.021973,471.856995   C922.512512,478.673004 906.171875,482.090790 889.260742,484.892883   C888.074585,484.364990 887.266357,484.485443 886.229370,484.843628   C886.002991,485.052124 886.021606,484.997925 886.038086,485.021393   C885.049622,485.804504 883.862488,485.359467 882.457031,485.672577   C878.691162,486.193909 875.238464,486.584320 871.355103,486.904785   C868.992554,486.142792 867.163940,486.420410 865.173462,487.634827   C860.138489,487.895691 855.339600,487.859558 850.547485,488.023621   C847.840332,488.116333 846.702881,487.055969 845.590942,484.457581   C842.034058,476.145935 841.662598,466.987732 838.211426,458.303833   C839.127197,456.264343 837.298584,455.052826 837.174438,453.317505   C835.955383,450.057434 834.997253,447.000854 834.014893,443.571045   C833.094360,440.993225 833.174500,439.385406 836.594971,439.850769   C836.796814,440.928619 836.183411,441.966949 836.479309,442.506378   C840.277039,449.427856 839.785889,457.545746 842.920654,464.729279   C845.144470,469.825409 846.551453,475.326630 848.584900,480.572418   C849.899292,483.963226 851.905884,485.064392 855.336243,485.046539   C874.793640,484.945282 893.877136,482.327118 912.785645,477.704254   C920.999817,475.696014 928.877197,472.564301 937.598572,471.002625  z"
   id="path23" />
<path
   fill="#386A90"
   opacity="1.000000"
   stroke="none"
   d=" M1038.044556,391.315552   C1036.392822,390.613312 1035.972290,389.591858 1036.027466,388.327942   C1036.297485,382.139801 1034.653198,376.491180 1031.459717,370.944641   C1035.207886,371.079651 1035.705200,374.187103 1036.942627,376.754730   C1037.958130,378.861725 1039.269531,380.825989 1040.190674,383.036438   C1039.641479,383.575623 1039.367310,383.943634 1038.992065,384.648102   C1038.821167,386.646179 1038.769531,388.321198 1038.651001,390.408691   C1038.492798,391.107086 1038.401489,391.392975 1038.044556,391.315552  z"
   id="path24" />
<path
   fill="#618189"
   opacity="1.000000"
   stroke="none"
   d=" M837.307861,440.084290   C835.285828,439.988129 834.087524,440.481995 834.033386,442.827087   C830.809387,435.770447 837.269165,440.270813 839.544800,439.126465   C839.194763,439.478394 838.411438,439.762421 837.307861,440.084290  z"
   id="path25" />
<path
   fill="#0000FF"
   opacity="1.000000"
   stroke="none"
   d=" M503.874939,701.555420   C502.257568,698.939148 503.090881,695.733643 503.505341,692.283691   C503.845886,695.033997 503.904541,698.070618 503.874939,701.555420  z"
   id="path26" />
<path
   fill="#446E9B"
   opacity="1.000000"
   stroke="none"
   d=" M865.321899,487.894531   C865.952942,484.363556 868.463135,486.571625 870.640625,486.630981   C869.186035,487.203552 867.447632,487.572296 865.321899,487.894531  z"
   id="path27" />
<path
   fill="#446E9B"
   opacity="1.000000"
   stroke="none"
   d=" M836.949829,453.474670   C839.013977,453.977875 838.862976,455.685455 838.347656,457.694763   C837.764954,456.566711 837.375610,455.201019 836.949829,453.474670  z"
   id="path28" />
<path
   fill="#446E9B"
   opacity="1.000000"
   stroke="none"
   d=" M846.527588,439.099121   C846.021729,440.054932 844.846497,439.990234 843.341370,440.013123   C842.480652,439.867432 841.971130,439.715576 841.264709,439.381592   C842.748474,439.146729 844.429138,439.093964 846.527588,439.099121  z"
   id="path29" />
<path
   fill="#7B8C7B"
   opacity="1.000000"
   stroke="none"
   d=" M1039.199707,384.963196   C1038.024658,384.064056 1038.263672,383.476105 1039.668945,383.186371   C1040.269897,383.650421 1040.608521,384.081543 1040.888794,384.783813   C1040.395874,385.021729 1039.961304,384.988525 1039.199707,384.963196  z"
   id="path30" />
<path
   fill="#3755AE"
   opacity="1.000000"
   stroke="none"
   d=" M882.499390,485.869934   C883.078979,484.988892 884.230957,485.018433 885.709595,485.010468   C885.326477,486.556641 883.967896,485.805817 882.499390,485.869934  z"
   id="path31" />
<path
   fill="#3755AE"
   opacity="1.000000"
   stroke="none"
   d=" M886.359253,485.023956   C886.674744,484.292114 887.444946,483.939148 888.631897,484.646271   C888.129150,484.882996 887.422363,484.939392 886.359253,485.023956  z"
   id="path32" />
<path
   fill="#3C6F95"
   opacity="1.000000"
   stroke="none"
   d=" M561.742676,724.464783   C561.806030,724.658630 561.360291,724.660034 561.360291,724.660034   C561.360291,724.660034 560.980286,724.426819 560.958008,724.203125   C561.231079,723.955994 561.478943,724.053162 561.742676,724.464783  z"
   id="path33" />

<path
   fill="#000000"
   opacity="1.000000"
   stroke="none"
   d=" M631.384216,215.038605   C621.766785,210.699371 614.918701,204.251526 611.950806,194.231995   C606.065002,174.361359 621.585815,156.909866 639.398560,155.878601   C653.607117,155.056000 666.573792,165.104248 670.298706,178.541092   C675.002014,195.507095 660.371887,216.326309 642.548523,215.992249   C638.956238,215.924927 635.250610,216.857040 631.384216,215.038605  z"
   id="path35"
   style="fill:#fdc93d;fill-opacity:1" />

<path
   fill="#000000"
   opacity="1.000000"
   stroke="none"
   d=" M644.928223,1125.011230   C626.910706,1124.945068 611.637756,1105.817017 615.703308,1088.812622   C619.503296,1072.918579 636.823547,1061.312012 653.382324,1066.147217   C662.693481,1068.866089 672.388550,1082.138794 673.082703,1092.129517   C673.884094,1103.663208 669.729858,1112.931763 660.648987,1119.627075   C656.323730,1122.816040 650.927063,1124.520630 644.928223,1125.011230  z"
   id="path37"
   style="fill:#3c7299;fill-opacity:1" />
<path
   fill="#386A90"
   opacity="1.000000"
   stroke="none"
   d=" M1032.351685,403.982849   C1032.180298,401.606628 1031.119751,398.413513 1035.744507,398.054626   C1034.973755,399.967102 1033.805054,401.881317 1032.351685,403.982849  z"
   id="path38" />
<path
   fill="#FFFF00"
   opacity="1.000000"
   stroke="none"
   d=" M1087.416626,669.412537   C1089.799561,669.120605 1092.475830,669.068665 1095.600830,669.089355   C1093.345703,670.616760 1090.520020,670.002808 1087.416626,669.412537  z"
   id="path39" />
<path
   fill="#7B8C7B"
   opacity="1.000000"
   stroke="none"
   d=" M1037.800903,391.323608   C1037.778809,390.952209 1038.174316,390.842163 1038.379150,390.831665   C1038.526978,391.703308 1038.469849,392.585449 1038.209229,393.741608   C1037.846191,393.916962 1037.686401,393.818268 1037.593018,393.445862   C1037.713989,392.679779 1037.768555,392.187408 1037.800903,391.323608  z"
   id="path40" />
<path
   fill="#386A90"
   opacity="1.000000"
   stroke="none"
   d=" M1037.502686,393.392273   C1037.659546,393.172150 1037.808472,393.603790 1037.907227,393.809723   C1037.860718,394.330109 1037.715576,394.644562 1037.336182,395.084656   C1037.183228,394.677643 1037.264404,394.145050 1037.502686,393.392273  z"
   id="path41" />
<path
   fill="#386A90"
   opacity="1.000000"
   stroke="none"
   d=" M1029.183838,407.793762   C1029.112061,407.626984 1029.280884,407.415680 1029.636841,407.099396   C1029.802490,407.297058 1029.669312,407.548645 1029.183838,407.793762  z"
   id="path42" />

<path
   fill="#386A90"
   opacity="1.000000"
   stroke="none"
   d=" M934.879517,421.413269   C936.042053,420.440094 937.119080,419.722137 938.526062,418.980194   C939.586365,418.380035 940.435303,418.501343 941.633789,418.757080   C939.678772,420.090271 938.398560,423.979614 934.879517,421.413269  z"
   id="path44" />
<path
   fill="#446E9B"
   opacity="1.000000"
   stroke="none"
   d=" M941.996765,418.665527   C941.211548,418.973785 940.426575,418.979156 939.248840,418.970367   C939.691162,418.371613 940.526367,417.786987 941.675903,417.176056   C941.992615,417.554047 941.994812,417.958313 941.996765,418.665527  z"
   id="path45" />
<path
   fill="#446E9B"
   opacity="1.000000"
   stroke="none"
   d=" M945.162964,415.977264   C945.373718,415.639221 945.859497,415.317596 946.654114,414.939270   C946.969543,415.068207 946.976135,415.253876 946.992798,415.718048   C947.002808,415.996521 947.000000,416.000000 946.997559,416.001740   C946.828796,416.121857 946.662415,416.240265 946.242371,416.187134   C945.805115,416.008270 945.621521,416.000977 945.162964,415.977264  z"
   id="path46" />
<path
   fill="#35668E"
   opacity="1.000000"
   stroke="none"
   d=" M929.000244,425.000641   C929.222839,424.803253 929.433044,424.587677 929.676147,424.419861   C929.734436,424.379578 929.902161,424.497864 930.019531,424.543213   C929.813904,424.683044 929.608276,424.822876 929.200073,424.980713   C928.997559,424.998718 929.000000,425.000000 929.000244,425.000641  z"
   id="path47" />
<path
   fill="#446E9B"
   opacity="1.000000"
   stroke="none"
   d=" M943.101562,416.877319   C943.085693,416.703339 943.277649,416.439545 943.720215,416.177063   C943.796509,416.431671 943.575989,416.634705 943.101562,416.877319  z"
   id="path48" />
<path
   fill="#386A90"
   opacity="1.000000"
   stroke="none"
   d=" M946.093262,416.145508   C946.156372,416.010864 946.324097,416.006104 946.743469,416.002411   C946.995117,416.003479 946.649597,416.340820 946.649597,416.340820   C946.649597,416.340820 946.197815,416.275391 946.093262,416.145508  z"
   id="path49" />
<path
   fill="#35668E"
   opacity="1.000000"
   stroke="none"
   d=" M937.998108,470.997559   C937.996216,470.995117 938.213013,470.645844 938.213013,470.645844   C938.213013,470.645844 938.201477,470.910919 938.103149,470.957397   C938.004883,471.003845 938.000000,471.000000 937.998108,470.997559  z"
   id="path50" />
</svg>
