<?xml version="1.0" encoding="UTF-8" standalone="no"?>
<svg
   version="1.1"
   id="Layer_1"
   x="0px"
   y="0px"
   width="3858.0972"
   viewBox="0 0 3858.0972 1028.4679"
   enable-background="new 0 0 1280 1280"
   xml:space="preserve"
   sodipodi:docname="phylozoo_full.svg"
   inkscape:version="1.3.2 (091e20e, 2023-11-25)"
   inkscape:export-filename="phylozoo_full2.svg"
   inkscape:export-xdpi="96"
   inkscape:export-ydpi="96"
   height="1028.4679"
   xmlns:inkscape="http://www.inkscape.org/namespaces/inkscape"
   xmlns:sodipodi="http://sodipodi.sourceforge.net/DTD/sodipodi-0.dtd"
   xmlns="http://www.w3.org/2000/svg"
   xmlns:svg="http://www.w3.org/2000/svg"><defs
   id="defs50" /><sodipodi:namedview
   id="namedview50"
   pagecolor="#ffffff"
   bordercolor="#000000"
   borderopacity="0.25"
   inkscape:showpageshadow="2"
   inkscape:pageopacity="0.0"
   inkscape:pagecheckerboard="0"
   inkscape:deskcolor="#d1d1d1"
   inkscape:zoom="0.15136719"
   inkscape:cx="2857.2903"
   inkscape:cy="1245.3161"
   inkscape:window-width="1920"
   inkscape:window-height="1003"
   inkscape:window-x="0"
   inkscape:window-y="0"
   inkscape:window-maximized="1"
   inkscape:current-layer="Layer_1" />

<path
   fill="#3c7299"
   opacity="1"
   stroke="none"
   d="m 253.19971,810.40733 c -15.59472,-15.3974 -30.84967,-30.62464 -46.20739,-45.74744 -6.45719,-6.35846 -13.1868,-12.43982 -19.67417,-18.76843 -1.98419,-1.93586 -3.30405,-1.87128 -5.42129,-0.045 -9.27396,7.99945 -17.77164,16.72907 -25.87522,25.90406 -11.14236,12.61547 -32.15147,10.2135 -40.08589,-1.77338 -9.70271,-14.65826 -18.065174,-29.97253 -26.029304,-45.61102 -4.99147,-9.80127 -9.29898,-19.86927 -13.63335,-29.9217 -8.63496,-20.02648 -15.03384,-40.90332 -20.72374,-61.88946 -4.70668,-17.35986 -8.08581,-35.13086 -10.40149,-53.03278 -0.32284,-2.49591 -1.5328,-3.70105 -3.9114,-4.41705 -15.21965,-4.58111 -26.53247,-14.19354 -34.4067401,-27.78223 -3.54129,-6.11132 -6.13602001,-12.92157 -6.51166001,-19.95636 -0.59737,-11.18646 -0.8812,-22.37494 4.17378001,-33.0913 7.1442601,-15.14557 18.2779601,-25.82264 33.7325501,-31.80091 4.48954,-1.73663 5.75644,-3.98022 6.0825,-8.65136 0.76508,-10.9607 2.35695,-21.83906 4.57011,-32.66858 2.59284,-12.68726 4.96828,-25.42505 8.27439,-37.93906 5.22882,-19.79175 11.1496,-39.40796 19.06224,-58.30399 6.7093,-16.02234 13.79477,-31.88305 22.50465,-47.00283 5.640694,-9.79187 10.749554,-19.91553 16.838684,-29.43757 10.16954,-15.90298 20.91557,-31.40643 32.86848,-46.06631 8.84888,-10.85284 18.06693,-21.41217 27.956,-31.24927 13.19802,-13.12869 26.74603,-25.89654 41.44595,-37.4989 12.11072,-9.55873 24.41824,-18.84482 37.19092,-27.37643 12.2001,-8.149161 24.97583,-15.510031 38.12652,-22.221741 11.40952,-5.82308 22.91922,-11.381814 34.61582,-16.556494 11.82678,-5.23227 24.18817,-9.05228 36.39318,-13.29447 9.77274,-3.39682 19.7034,-6.24139 29.69706,-8.73753 15.74829,-3.93349 31.71826,-6.93413 47.81402,-9.16884 0.65351,-0.0907 1.33002,-0.32362 1.95948,-0.23422 11.21569,1.59289 15.2387,-6.95558 20.45092,-14.16016 7.96387,-11.00811 19.27015,-17.5797897 32.17383,-20.3658597 22.78705,-4.92002 45.34802,1.86853 60.25495,21.4434397 12.22644,16.05505 15.79309,33.66606 10.51428,52.99043 -4.3891,16.067324 -14.34119,28.330835 -28.82276,35.980075 -10.71618,5.66028 -22.40264,8.49529 -35.16186,6.60901 -13.98352,-2.0673 -25.45734,-8.31192 -35.53729,-17.5804 -4.10285,-3.772531 -7.51319,-8.437271 -9.59589,-13.643521 -1.60919,-4.02246 -4.37067,-4.64746 -7.79858,-4.04976 -9.68671,1.68893 -19.37061,3.4267 -28.9939,5.44014 -23.30853,4.87682 -46.06268,11.831791 -68.06397,20.794561 -16.51892,6.72941 -32.64715,14.48921 -48.21578,23.38363 -17.12793,9.78528 -33.45426,20.73511 -49.10868,32.64148 -7.85318,5.9729 -15.59946,12.19415 -22.66019,19.19055 -8.0863,8.0127 -16.72338,15.48941 -24.54571,23.74427 -14.46448,15.26425 -27.79523,31.444 -39.62765,48.93014 -9.67414,14.29663 -18.77579,28.87409 -26.85004,44.10297 -9.46143,17.8453 -17.74216,36.21988 -24.97919,55.09466 -6.64746,17.33719 -12.21555,35.03064 -16.44638,53.04236 -3.296394,14.03357 -6.046684,28.27655 -7.566144,42.68091 -0.29359,2.78333 -0.0152,5.84039 -1.10196,8.28076 -2.07833,4.66718 0.73226,6.38751 3.77694,8.6153 15.340504,11.22442 24.207004,25.89148 24.450524,45.39551 0.13569,10.86816 -0.50588,21.37921 -5.90024,31.1939 -4.52915,8.24042 -10.1534,15.50769 -18.058894,20.59778 -3.04506,1.96057 -3.77467,3.94446 -3.14433,7.15088 2.02119,10.28095 4.25872,20.51648 6.40893,30.76611 3.950604,18.83179 9.703454,37.12806 16.017784,55.19184 4.83846,13.84155 10.63918,27.43164 17.47442,40.49798 2.19924,4.2041 4.29074,8.46961 6.27859,12.77765 1.4184,3.07373 2.96835,2.95551 5.18423,0.78382 6.7287,-6.59449 14.08268,-12.4903 21.84412,-17.76935 15.45804,-10.5138 31.99536,-19.10742 49.2887,-26.20618 16.60403,-6.81573 34.15094,-10.31677 51.57321,-14.13715 6.22955,-1.36596 12.74225,-1.40655 19.10864,-2.19085 9.75269,-1.20148 19.54111,-1.02075 29.33215,-1.06098 2.33484,-0.01 3.81666,0.74463 4.38596,2.94935 3.15308,12.21099 6.26035,24.43377 9.39325,36.64996 0.0813,0.31701 0.33606,0.59082 0.41061,0.90814 1.7432,7.41931 1.6677,7.67517 -5.80014,7.47211 -11.12265,-0.30237 -22.13079,0.92688 -33.15484,2.03808 -0.78244,0.0789 -1.89353,0.0756 -2.24961,0.55646 -0.78744,1.06323 0.34922,1.81213 1.02231,2.44312 4.4715,4.19146 9.05445,8.26562 13.47492,12.50952 7.85858,7.54474 15.6275,15.18298 23.6485,23.02069 -6.45374,6.10272 -12.44944,12.66406 -18.94346,18.70788 -1.35513,1.26123 -2.95138,2.11737 -5.25183,2.06507 -2.9483,-0.62421 -4.6318,-2.52545 -6.39672,-4.27375 -14.06412,-13.9317 -28.67719,-27.30462 -42.44815,-41.52947 -3.07688,-3.17841 -5.87012,-4.08722 -10.09229,-2.25501 -8.2309,3.57202 -16.69965,6.58618 -24.76456,10.56934 -3.08035,1.52142 -3.46759,2.87457 -0.82126,5.43109 18.78363,18.1463 37.03794,36.83819 56.25126,54.54266 1.72787,1.5921 3.37643,3.25897 3.23147,6.2157 -6.1112,5.78638 -11.97766,11.35126 -17.10629,17.65686 -1.71988,2.11462 -3.81381,3.75207 -7.1666,2.50684 z"
   id="path2" />
<path
   fill="#fec93b"
   opacity="1"
   stroke="none"
   d="m 909.61338,258.08714 c 7.1367,8.37402 11.2703,18.05642 16.2023,27.3106 6.5273,12.24768 12.0453,24.9534 17.4609,37.67771 4.4546,10.46637 8.6484,21.0635 12.0671,31.99603 3.1748,10.15304 6.1685,20.32693 8.9851,30.5831 4.3361,15.78906 7.3744,31.79285 9.9878,47.93945 0.8676,5.36157 0.4741,10.7414 1.5136,16.10584 0.6228,3.21319 1.3716,4.67755 4.3319,5.61358 11.4255,3.61243 20.65712,10.6471 28.08402,19.76807 6.4759,7.95294 10.5344,17.08942 12.0476,27.5567 1.2953,8.96045 0.9001,17.69629 -1.3384,26.1911 -3.2552,12.35358 -10.0794,22.58734 -20.27132,30.67279 -5.841,4.63379 -12.0723,8.01319 -19.1614,10.09803 -1.7855,0.52514 -3.3142,1.41974 -3.509,4.06475 -0.907,12.3161 -3.122,24.40601 -5.6188,36.53547 -3.5516,17.25409 -8.1512,34.15313 -13.2007,50.98748 -6.2213,20.74127 -14.8628,40.50452 -24.1249,59.98999 -10.046,21.13514 -22.0074,41.25873 -35.2367,60.51563 -9.7732,14.22613 -20.6588,27.68976 -32.16444,40.64014 -9.00434,10.13494 -17.904,20.36059 -27.82666,29.59265 -14.61048,13.5935 -29.40918,26.93893 -45.51453,38.85403 -15.76819,11.6656 -31.91132,22.7552 -48.90936,32.4238 -18.5904,10.5743 -37.66944,20.2616 -57.59388,28.3041 -15.52844,6.268 -31.17388,12.1731 -47.24035,16.7005 -15.67414,4.417 -31.37964,8.93997 -47.62384,11.13257 -6.22046,0.8397 -12.31153,2.6224 -18.47486,3.9114 -1.29864,0.2715 -2.04284,0.894 -2.36529,2.1701 -4.38403,17.35145 -15.10236,29.80215 -31.01508,37.15405 -18.27252,8.4423 -36.55316,7.8661 -54.58905,-2.0864 -14.6524,-8.0856 -24.26678,-19.7439 -28.48626,-35.80005 -2.219,-8.44377 -1.98304,-16.97177 -1.21448,-25.73997 0.83569,-9.5327 4.60596,-17.3674 9.89807,-24.7474 10.16718,-14.1785 23.40851,-23.3538 41.31097,-24.9945 8.15882,-0.7478 16.4668,-1.0559 24.13861,1.2438 12.62092,3.7832 23.74726,10.5632 31.42682,21.8011 3.77094,5.5182 9.05085,2.5236 12.92627,1.5518 18.7461,-4.7008 37.80902,-8.0091 56.26093,-14.1416 13.3009,-4.4207 26.46374,-9.0718 39.38397,-14.4351 12.02216,-4.9905 23.79224,-10.5106 35.29981,-16.6501 15.84362,-8.4527 30.83209,-18.14048 45.50598,-28.47849 13.61236,-9.59015 26.6947,-19.79333 39.00561,-30.93213 9.46668,-8.56537 18.35132,-17.75714 27.14191,-27.07153 11.24133,-11.91138 21.91736,-24.2301 31.76532,-37.25128 5.84766,-7.73175 11.01904,-16.00269 16.1297,-24.25714 6.54651,-10.57367 13.43991,-21.02668 18.87071,-32.17157 5.8991,-12.1059 11.9227,-24.18268 16.7358,-36.86237 4.8649,-12.81586 9.7521,-25.59607 13.5341,-38.76385 4.9931,-17.38526 9.904,-34.79627 12.0336,-52.85218 0.4538,-3.84698 1.9159,-7.54016 1.98,-11.51013 0.046,-2.8659 -0.6797,-4.62646 -3.3681,-6.36389 -12.6202,-8.15607 -21.527,-19.86841 -24.1067,-34.36987 -2.2625,-12.71887 -2.4325,-25.97528 3.7295,-38.61597 3.0111,-6.17694 6.2135,-11.9483 10.4626,-17.26624 2.5473,-3.18811 5.504,-5.97662 9.0505,-7.77362 3.5469,-1.79724 4.8739,-4.28387 4.1432,-7.91168 -2.6187,-13.00189 -4.6278,-26.1084 -7.3755,-39.10272 -2.9809,-14.0968 -6.899,-27.92084 -10.8789,-41.68842 -2.7039,-9.354 -6.1327,-18.67474 -10.087,-27.63208 -4.7618,-10.78625 -8.8456,-21.89395 -14.5829,-32.24929 -2.1667,-3.91086 -4.0598,-7.97336 -6.3977,-12.12442 -2.0789,-3.13984 0.352,-4.79065 1.9233,-6.46991 5.0007,-5.3443 10.3255,-10.37629 15.6734,-15.85801 0.5267,-0.57528 0.8315,-0.89474 1.3461,-1.45901 0.9041,-1.04456 1.5611,-1.8717 2.288,-3.04749 1.2912,-1.83395 2.6271,-3.25113 3.5385,-5.33374 0.4812,-1.05005 0.9224,-1.76611 1.382,-2.82275 0.3024,-0.67209 0.5014,-1.04453 0.8555,-1.69708 0.5834,-1.0632 0.8252,-1.89334 0.8409,-3.14466 0.083,-1.85077 -0.2301,-3.40115 0.9005,-5.0827 0.732,-0.60705 1.2403,-0.69317 2.1136,-0.32702 z"
   id="path3" />
<path
   fill="#3c7299"
   opacity="1"
   stroke="none"
   d="m 372.77253,574.90159 c 0.3327,19.37402 3.08066,38.00824 7.03155,56.60968 2.8274,13.31171 6.12354,26.45599 9.66437,39.57355 5.84632,21.65881 11.59467,43.36236 15.48157,65.47027 4.17004,23.71863 5.68451,47.76135 3.91766,71.71106 -1.49316,20.23895 -5.5249,40.2041 -12.7976,59.40515 -5.83887,15.41538 -13.03779,30.17998 -22.25272,43.69098 -7.52402,11.0316 -14.91556,22.4586 -25.48071,31.1121 -9.0799,7.437 -23.75934,9.2672 -33.55414,-3.1277 -10.16782,-12.8666 -8.7417,-25.0753 2.51452,-36.9567 4.87952,-5.1504 10.6048,-9.9239 12.83683,-17.5392 7.24728,-8.8337 13.00317,-18.11039 15.87075,-29.374 4.24155,-13.84082 8.58902,-27.27502 10.21674,-41.80175 1.02579,-2.35578 1.73788,-4.32294 1.97809,-6.54578 1.27078,-11.75848 1.62366,-23.4884 -0.15921,-35.50647 2.40814,-5.95966 -0.50818,-11.25018 -1.07684,-16.67322 -1.6778,-15.99908 -5.03989,-31.74536 -8.95661,-47.32855 -3.83243,-15.24805 -8.73285,-30.23425 -12.3519,-45.52765 -3.88421,-16.41394 -7.8117,-32.84869 -9.56595,-49.71155 -1.55774,-14.97357 -3.83224,-29.94397 -2.84027,-44.99878 1.18775,-18.02612 1.82972,-36.06933 6.39695,-53.84875 2.5144,-9.78833 4.43566,-19.82568 7.61779,-29.41394 4.53046,-13.65106 10.02869,-26.93836 16.99677,-39.64166 7.11462,-12.9704 14.50232,-25.71436 23.90726,-37.14441 9.93579,-12.0752 20.43817,-23.53168 32.60095,-33.59409 12.07989,-9.9938 24.50104,-19.36566 37.90265,-27.42331 7.59869,-4.56866 15.46264,-8.6413 23.60467,-12.27585 9.1178,-4.0701 18.19739,-8.01941 27.67255,-11.28955 14.62671,-5.04806 29.5534,-8.72055 44.70685,-11.37189 23.90326,-4.18231 48.08813,-4.58917 72.29754,-4.19561 2.65375,0.0431 4.10425,1.10895 4.76886,3.37613 4.19025,14.29473 8.16797,28.65414 12.56269,42.88504 1.08679,3.51922 -0.56281,4.2185 -2.90772,3.6705 -6.5213,-1.52396 -13.15545,-0.67731 -19.72064,-1.39133 -7.24078,-0.78747 -14.70276,-1.04565 -21.91376,-0.20602 -8.32849,0.96972 -16.711,1.50491 -25.03784,2.44531 -14.96137,1.68979 -29.32373,5.38031 -43.6015,9.74622 -22.78253,6.96655 -43.82227,17.56085 -62.9762,31.62945 -14.34564,10.53693 -27.61688,22.30573 -38.52319,36.62933 -5.6601,7.4336 -11.5669,14.67457 -16.25354,22.75831 -8.95367,15.44354 -16.18811,31.6831 -21.17182,48.84411 -3.98348,13.71692 -7.10272,27.59998 -8.20754,41.93598 -0.38087,4.94189 -0.8223,9.87555 -1.01407,15.29498 -0.66938,3.53711 -0.23084,6.6416 -0.18384,10.09961 z"
   id="path4" />
<path
   fill="#fdc93c"
   opacity="1"
   stroke="none"
   d="m 553.78742,180.49625 c 9.90204,8.04929 19.51337,15.88053 29.10388,23.7371 5.1709,4.23605 10.34674,8.4678 15.44269,12.79296 3.08093,2.61487 3.11847,4.55561 -0.96851,6.63498 -17.09466,8.69745 -34.03283,17.70185 -51.05456,26.54328 -7.28235,3.78262 -14.71771,7.27975 -21.9065,11.22903 -3.33032,1.82959 -3.26074,0.0711 -3.25189,-2.25751 0.0164,-4.31982 2.31171,-8.04608 3.15064,-12.20248 1.97839,-9.80121 2.30121,-9.85004 -7.48926,-9.71588 -20.30896,0.27829 -40.36249,2.15362 -60.31635,6.60736 -16.94299,3.78174 -33.49224,8.63947 -49.0498,15.93887 -19.1673,8.99295 -37.50681,19.62546 -53.94147,33.35147 -10.51016,8.77802 -21.02719,17.50452 -30.29117,27.58081 -12.69006,13.8028 -23.66919,28.89258 -33.8739,44.65805 -9.89337,15.28452 -16.81698,31.90439 -23.29336,48.66581 -5.50394,14.2445 -9.56549,29.06579 -11.99494,44.27099 -1.93548,12.11377 -3.23806,24.23664 -4.3146,36.46814 -1.21649,13.82172 0.63788,27.37732 0.53137,41.05304 -0.0425,5.46613 1.92395,10.90454 1.87665,16.51343 -0.0224,2.65979 1.55301,3.54016 3.98135,2.4104 5.09723,-2.37134 10.24134,-4.66437 15.1944,-7.3111 1.72836,-0.92364 3.66446,-2.94152 5.15002,-1.88421 1.41938,1.01025 0.36048,3.42114 -0.20526,5.39776 -4.42792,15.47126 -10.18875,30.461 -15.74603,45.5387 -3.89374,10.56421 -7.04239,21.40295 -10.52719,32.11804 -1.47479,4.53461 -3.74518,5.14386 -7.11298,1.86438 -13.5628,-13.20685 -27.08429,-26.45624 -40.67804,-39.63116 -6.05713,-5.87049 -12.23715,-11.61457 -18.38989,-17.38575 -1.24383,-1.16674 -2.52338,-2.55865 -1.95844,-4.17565 0.61814,-1.76917 2.61045,-0.96912 4.00876,-0.98713 5.83112,-0.0751 11.66574,-0.13256 17.49494,-0.006 3.25543,0.0709 4.25634,-1.60053 3.6571,-4.36298 -2.29089,-10.5603 -2.582,-21.36102 -4.05789,-32.00384 -1.01208,-7.29828 -0.64337,-14.52338 -0.81049,-21.77997 -0.43615,-18.93506 1.77964,-37.64728 4.92813,-56.27734 2.61481,-15.47229 5.89209,-30.78949 11.03464,-45.63654 3.46005,-9.98956 7.51578,-19.76056 11.43476,-29.57114 6.14492,-15.38287 14.17218,-29.64819 22.78756,-43.52508 8.90671,-14.34616 18.73282,-28.15253 30.59,-40.47507 8.99847,-9.35171 17.78946,-18.88556 27.65945,-27.31195 15.06403,-12.86078 30.67282,-24.95254 47.86682,-34.98404 18.90537,-11.02997 38.74518,-20.00452 59.42005,-26.85065 15.57873,-5.15863 31.64343,-8.76226 47.95001,-11.45819 20.94599,-3.46298 41.93524,-4.08584 63.0343,-3.74597 2.68164,0.0432 3.46295,-0.78973 3.30042,-3.38034 -0.36072,-5.74689 -1.70764,-11.45196 -0.96344,-17.24139 0.18695,-1.45404 -1.17908,-3.4906 1.03967,-4.30289 1.79254,-0.65628 2.92151,0.70309 4.26025,1.77628 5.58143,4.47424 11.31867,8.75427 17.2981,13.31298 z"
   id="path5" />
<path
   fill="#fdc93d"
   opacity="1"
   stroke="none"
   d="m 617.13556,580.63901 c 13.11725,-17.58898 24.21381,-36.19738 32.29529,-56.38586 4.40369,-11.00091 8.38306,-22.46252 10.28522,-34.08752 1.70154,-10.39942 3.3833,-20.94983 3.73987,-31.6814 0.25116,-7.55829 0.12701,-15.01367 -0.34821,-22.50928 -0.92785,-14.63452 -3.04187,-29.09228 -5.91644,-43.48352 -3.60065,-18.02585 -7.89563,-35.88894 -13.1817,-53.45672 -5.43958,-18.07819 -10.40497,-36.29776 -13.52924,-54.84229 -1.55633,-9.23822 -2.87066,-18.68887 -3.6286,-28.1705 -1.03558,-12.95566 -0.84747,-25.86935 -0.52038,-38.75372 0.25048,-9.86481 2.1466,-19.71518 3.52587,-29.55164 1.65302,-11.78888 4.57941,-23.11893 8.23523,-34.33615 3.94758,-12.11246 9.8089,-23.33337 15.78522,-34.56387 6.48401,-12.18465 14.94342,-22.967981 22.56555,-34.344031 6.85596,-10.232394 21.64673,-14.817234 32.70649,-9.496464 7.45068,3.584464 11.84918,9.841464 13.07336,18.537714 1.47797,10.499171 -2.74017,18.416561 -9.508,25.613171 -0.45611,0.48503 -0.95965,0.9278 -1.39343,1.4313 -4.82037,5.59519 -4.9812,5.77392 0.41138,10.76594 13.15985,12.18243 25.62469,25.0725 38.54626,37.48974 12.45917,11.97281 25.03058,23.8208 37.29358,36.54215 -4.93518,7.62625 -11.4411,13.85189 -18.00073,20.01965 -0.96124,0.90384 -2.28473,1.28241 -4.01556,1.29581 -3.30079,-0.13404 -5.13276,-2.14911 -7.04908,-3.98041 -21.03228,-20.10004 -41.96222,-40.30603 -62.72235,-60.6875 -3.90704,-3.83582 -4.69189,-3.83719 -6.62426,1.43017 -3.08509,8.4094 -6.16944,16.81693 -7.67524,25.75745 -0.9021,5.35608 0.36322,9.20544 4.35871,12.8204 15.04669,13.61322 29.15869,28.21201 43.95727,42.09421 3.67249,3.44513 8.28473,6.28647 9.6911,11.99768 -5.93969,5.51569 -10.52124,11.9158 -16.32238,17.13431 -1.97547,1.77707 -3.85596,3.80484 -7.31763,2.84888 -13.5304,-12.64472 -26.69745,-25.26157 -40.8194,-38.79334 0.1377,12.22458 1.73578,22.72174 3.17487,33.18735 2.57715,18.74228 8.0744,36.87854 13.17633,55.01208 4.841,17.2064 10.10296,34.33527 13.46124,51.85209 2.81366,14.67608 5.20282,29.48578 6.45697,44.48468 1.33264,15.93689 1.258,31.87665 0.48322,47.70733 -0.64527,13.18372 -3.16602,26.34308 -5.76587,39.43109 -4.16437,20.96405 -12.40747,40.34296 -21.6499,59.25483 -6.29554,12.88208 -13.73511,25.3471 -23.5138,36.17999 -2.11401,2.34186 -3.50958,5.39447 -6.31207,7.68127 -4.24939,1.96344 -4.60199,-0.68078 -4.31287,-3.40735 0.34894,-3.28961 0.81549,-6.46759 0.10657,-9.82623 -2.53821,-12.02539 -12.95862,-19.21863 -25.0105,-17.07178 -2.72351,0.48517 -5.54388,1.53095 -8.19196,-1.13971 z"
   id="path6" />
<path
   fill="#fec93b"
   opacity="1"
   stroke="none"
   d="m 745.78339,464.31681 c -2.79651,-1.06702 -2.77923,-1.06097 -2.02814,-3.19867 5.22535,-14.87164 10.46406,-29.73859 15.6554,-44.62207 3.28174,-9.40881 6.05634,-19.0061 10.19287,-28.09393 0.7489,-1.64514 0.21802,-3.24085 0.72565,-4.83582 1.5296,-4.80645 3.97858,-5.50116 7.53534,-1.95337 17.28058,17.23651 34.55151,34.48267 51.83124,51.72003 2.26776,2.26221 4.33435,4.83478 6.94043,6.60737 1.48895,1.01275 1.54443,1.92059 1.37249,3.16803 -0.2514,1.82421 -1.80053,1.07604 -2.77832,1.08721 -6.49823,0.0739 -13.00616,0.24274 -19.49298,-0.037 -3.32123,-0.14325 -4.24048,1.17083 -3.56396,4.00024 3.08984,12.92072 3.42914,26.17743 5.0227,39.28271 1.75385,14.42328 1.3758,28.90229 0.64923,43.25141 -0.85327,16.85126 -2.81311,33.7088 -6.9212,50.21948 -3.27075,13.14533 -6.45612,26.35089 -11.2525,38.98706 -4.03589,10.63263 -8.42041,21.16998 -13.76966,31.3244 -5.11578,9.71119 -10.1007,19.48847 -16.13085,28.63733 -7.31354,11.09626 -15.08491,21.86774 -23.65552,32.09192 -5.75104,6.86042 -11.87171,13.45007 -18.20063,19.60553 -10.31414,10.03131 -20.63458,20.16602 -32.70074,28.38214 -8.40973,5.72644 -16.44373,12.09381 -25.21832,17.245 -10.77106,6.32336 -21.89838,11.99975 -33.19342,17.43072 -16.59162,7.97773 -33.82538,13.88953 -51.41224,18.90363 -13.40447,3.82184 -27.21655,5.72088 -40.97827,7.94678 -11.87036,1.91998 -23.67645,1.7063 -35.53601,1.70391 -3.13922,-6.1e-4 -4.10443,0.87043 -3.79901,3.91938 0.60529,6.04211 0.86432,12.12066 1.5553,18.15106 0.14734,1.28589 0.95758,2.89758 0.006,3.64343 -1.09516,0.85858 -2.73438,0.5119 -4.05396,-0.51654 -3.97729,-3.09979 -8.06061,-6.06396 -12.02588,-9.17859 -8.06579,-6.33563 -15.84491,-13.0664 -24.18133,-19.01935 -9.10993,-6.50531 -18.08686,-13.17706 -27.07617,-19.84106 -4.38196,-3.24835 -4.37116,-3.58936 0.23596,-6.22931 6.85968,-3.93054 13.53991,-8.17285 20.36157,-12.17151 12.93426,-7.58142 25.91333,-15.08642 38.87677,-22.61804 4.04895,-2.35236 8.07452,-4.7486 12.18445,-6.98975 1.08117,-0.58966 2.45373,-1.7525 3.6217,-0.85046 1.10315,0.85187 0.69116,2.57758 0.39581,3.77057 -1.31616,5.31634 -2.74096,10.61169 -4.34368,15.84814 -0.6059,1.9798 -1.20142,4.22956 -0.005,5.63147 1.12469,1.31793 3.2337,0.19434 5.0166,-0.14959 5.15356,-0.99402 10.49695,-0.80323 15.70441,-1.06055 12.6344,-0.62433 24.76849,-3.64417 36.90545,-6.44214 19.18164,-4.422 37.66217,-11.34186 55.22431,-20.12738 17.96209,-8.98566 34.6897,-20.12262 50.37585,-32.81024 16.24073,-13.13629 30.008,-28.44464 42.93561,-44.79724 10.7934,-13.65277 19.62634,-28.45276 27.85034,-43.57959 5.17151,-9.51209 8.80493,-19.92865 12.68701,-30.15686 6.42347,-16.92432 9.72797,-34.52259 12.54297,-52.16181 2.18921,-13.71741 1.24011,-27.79382 1.28894,-41.72662 0.0525,-14.9812 -1.64911,-29.76392 -3.9729,-44.52442 -0.55456,-3.52246 -2.02356,-2.24884 -3.94501,-1.56951 -5.7633,2.0379 -10.78033,5.99749 -17.45886,6.70251 z"
   id="path7" />
<path
   fill="#3d7299"
   opacity="1"
   stroke="none"
   d="m 616.66175,580.46653 c 2.76849,0.91461 5.17914,-0.0139 7.59521,-0.45679 17.56134,-3.21899 31.08558,10.38703 28.06263,28.06525 -0.20301,1.18713 -3.22785,4.00433 1.56329,4.20563 -12.54144,15.5484 -27.09222,29.44964 -43.59509,41.09613 -17.69635,12.48889 -36.33942,23.27069 -56.63166,31.3454 -13.14251,5.22961 -26.44934,9.99462 -40.11621,12.94683 -13.8952,3.00159 -27.91247,5.95471 -42.3034,6.76368 -10.88153,0.61163 -21.71436,2.10137 -32.66211,1.81134 -7.59027,-0.20118 -15.11072,-1.02295 -22.64697,-1.88062 -2.72565,-0.31018 -3.95801,-1.59643 -4.50763,-3.75311 -3.59485,-14.10627 -6.98798,-28.26465 -10.68097,-42.34467 -0.73023,-2.78393 0.35479,-3.34649 2.49743,-3.20972 6.41577,0.40961 12.83088,0.87171 19.23096,1.47596 12.4054,1.1712 24.78937,1.15173 37.20514,0.0407 6.55383,-0.58649 13.07166,-1.33081 19.59863,-2.16217 10.61652,-1.3523 20.87146,-4.1742 31.17456,-6.81836 12.73053,-3.26721 25.125,-7.67591 36.86402,-13.51563 13.6842,-6.80737 26.73663,-14.78302 38.80053,-24.26818 10.17389,-7.99909 19.32093,-17.09546 28.31421,-26.35706 0.78455,-0.80786 1.3067,-1.87042 2.23743,-2.98462 z"
   id="path8" />
<path
   fill="#3e7399"
   opacity="1"
   stroke="none"
   d="m 901.34458,277.12571 c -0.7468,1.14056 -1.3266,1.9711 -2.1731,2.95608 -0.3686,0.33515 -0.4707,0.51587 -0.8303,0.87113 -4.3419,5.7959 -9.6766,10.23523 -14.4552,15.20023 -1.9304,2.0057 -4.1715,3.75253 -5.4044,6.70211 -10.10578,10.40293 -21.88917,18.13056 -34.07404,25.32813 -9.64887,5.69955 -19.93659,10.10214 -30.01978,14.91708 -2.04052,0.97443 -4.32434,1.43936 -7.18231,2.18241 -1.1297,0.0131 -1.57349,0.0112 -2.3811,0.0852 -20.30036,7.17447 -40.82361,11.54611 -61.90863,13.43179 -6.45752,0.57752 -12.89478,1.05432 -19.38379,1.00751 -3.43048,-0.0248 -5.67078,-1.55447 -7.16577,-4.44168 -1.14917,-2.21939 -1.94074,-4.58939 -2.72608,-6.95609 -3.53155,-10.64401 -5.65826,-21.69668 -9.37543,-32.28872 -0.21991,-0.62674 0.15766,-1.29538 0.72718,-2.21826 1.11004,-1.20649 2.23712,-1.11829 3.71051,-1.30939 0.56799,-0.16275 0.74975,-0.19211 1.20379,-0.17487 0.91889,0.38932 1.65235,0.33237 2.6836,0.59754 12.12475,0.67642 23.85431,-0.009 35.56231,-1.26996 1.20423,-0.12967 2.4184,-0.38635 2.92102,-1.56473 0.698,-1.6366 -0.73937,-2.35199 -1.71948,-3.18863 -7.44739,-6.35748 -14.03845,-13.61133 -21.21386,-20.25583 -4.03315,-3.73474 -4.03199,-5.97351 -0.43958,-10.21094 1.51117,-1.7825 3.11115,-3.50814 5.22491,-4.56796 2.72413,-1.36572 4.88514,-3.13339 6.56342,-5.82181 2.10877,-3.37786 4.06506,-3.38314 7.38709,-0.69519 5.56341,4.50156 10.46594,9.71274 15.67791,14.59137 6.14667,5.75376 11.58057,12.20157 17.95453,17.73801 5.42444,4.71173 5.37299,4.93134 12.15656,1.99811 0.76056,-0.32883 1.48553,-0.75183 2.5545,-0.96118 0.24146,-0.0489 0.60541,-0.24216 0.61298,-0.46402 -0.091,-0.56153 -0.10413,-0.90781 0.036,-1.55503 1.79443,-2.60559 4.15491,-3.44058 7.24377,-3.33899 2.71607,1.92533 4.06385,-0.0756 5.83667,-1.55853 0.49536,-0.53769 0.72626,-0.88363 1.10401,-1.5086 0.32623,-0.4065 0.46966,-0.55814 0.85565,-0.90665 0.58722,-0.42655 0.94897,-0.62537 1.6098,-0.90689 0.47949,-0.15576 0.67517,-0.20136 1.16528,-0.27088 0.48529,-0.0118 0.67633,2.8e-4 1.13697,0.0605 0.60687,0.12479 0.94757,0.15744 1.53155,-0.004 0.4129,-0.22553 0.58734,-0.31739 1.05829,-0.50409 1.19568,-0.52863 2.12115,-0.9235 2.94525,-1.48761 3.88459,-2.65961 3.98993,-3.35923 0.56201,-6.77839 -12.84234,-12.80975 -25.66223,-25.6398 -38.93402,-38.0148 -5.85565,-5.45996 -5.16565,-9.46588 1.49774,-13.89376 3.70697,-2.46335 7.55188,-4.74549 10.39405,-8.40763 2.6734,-3.44461 5.27099,-1.42224 7.54077,0.82382 7.328,7.25156 14.70471,14.45295 22.07251,21.66352 7.36218,7.20514 15.45312,13.65036 22.31756,21.35574 1.86078,2.08865 3.19452,1.60788 5.00568,0.0908 4.094,-3.42947 7.61084,-7.40347 11.05365,-11.44086 4.25092,-4.98513 8.87544,-9.36062 15.06734,-11.97384 4.7292,-1.99588 9.2727,-2.30335 13.9339,-0.13593 2.9482,1.37082 6.7228,0.8321 9.2944,3.94647 0.3483,0.0735 0.5027,0.10178 0.5338,0.17383 5.3939,5.48996 5.9243,12.45609 6.4217,19.80701 0.3702,0.76019 0.478,1.22113 0.4465,2.06045 -0.3351,0.99015 -0.8458,1.50983 -1.2103,2.51453 -0.2929,1.1395 -0.4455,1.95621 -0.8488,2.96918 -2.7746,1.15973 -3.6496,3.24548 -4.1592,6.0036 z"
   id="path9" />

<path
   fill="#fdcc40"
   opacity="1"
   stroke="none"
   d="m 506.50782,518.34891 c -21.21118,-18.23815 -40.01288,-38.6145 -59.80133,-57.97991 -5.08527,-4.97663 -10.71942,-9.38685 -15.13812,-15.0564 -1.25483,-1.60999 -2.08497,-2.63037 -0.45642,-4.61139 5.26794,-6.40796 11.3576,-12.0141 17.03454,-18.02014 2.85986,-3.0257 4.3291,-0.43366 6.01849,1.16974 23.0741,21.89996 45.54487,44.41339 67.98237,66.96026 2.45873,2.47071 4.86865,4.98999 7.59875,7.75245 -6.24567,4.74798 -12.33069,9.72613 -17.27557,16.01013 -1.42011,1.80475 -3.09797,3.45727 -5.96271,3.77526 z"
   id="path11" />
<path
   fill="#3e7097"
   opacity="1"
   stroke="none"
   d="m 506.27918,518.68589 c 6.09418,-6.47296 12.33344,-12.62463 18.52142,-18.82733 1.27143,-1.27448 2.55249,-2.07868 4.80829,-1.17096 17.99549,17.33618 35.53052,34.55707 53.12983,51.7121 6.83679,6.66418 13.80761,13.1911 20.74176,19.75482 1.86535,1.76562 2.39044,3.6831 0.49823,5.61865 -5.72431,5.85535 -11.51221,11.64929 -17.33112,17.41083 -1.95899,1.93969 -3.81952,1.30054 -5.59729,-0.48285 -9.87671,-9.90802 -19.76318,-19.80646 -29.68103,-29.67322 -10.02673,-9.9751 -20.16528,-19.83801 -30.28845,-29.71112 -4.8833,-4.76263 -10.03431,-9.29913 -14.80164,-14.63092 z"
   id="path12" /><path
   fill="#fdcc40"
   opacity="1"
   stroke="none"
   d="m 479.2303,547.39336 c 19.02656,16.0059 35.83938,33.83024 53.56044,50.79302 4.55407,4.35918 9.61324,8.23559 13.55355,13.18544 1.11904,1.40562 5.18793,5.3581 3.68498,7.05006 -4.86164,5.47289 -11.77901,11.21795 -19.015,12.30306 -4.19447,0.629 -3.93495,0.32329 -5.44852,-1.08179 -20.67196,-19.1911 -40.78853,-38.90499 -60.87459,-58.64737 -2.20105,-2.1634 -4.35716,-4.36816 -6.80096,-6.78679 5.72849,-4.02739 11.3139,-8.25549 15.88068,-13.62514 1.3115,-1.54216 2.85521,-2.94976 5.45942,-3.19049 z"
   id="path11-3"
   style="stroke-width:0.885579"
   sodipodi:nodetypes="csssscscsc" /><path
   fill="#3e7097"
   opacity="1"
   stroke="none"
   d="m 481.6309,549.35593 c -5.61871,5.65847 -11.36538,11.03063 -17.06607,16.4486 -1.17131,1.11324 -2.34553,1.80988 -4.38415,0.97859 -16.13732,-15.57171 -31.85759,-31.03574 -47.63711,-46.4422 -6.12985,-5.98493 -11.50793,-9.87963 -17.72756,-15.77677 -1.67309,-1.58632 0.1336,0.20015 0.1336,0.20015 -1.83475,-7.12993 3.01874,-18.20258 8.37853,-23.23434 1.8045,-1.69401 5.5812,-1.84074 11.27724,1.36897 8.8519,8.89462 17.71289,17.78089 26.60269,26.63948 8.9875,8.95585 18.07797,17.81371 27.15436,26.68042 4.37832,4.27716 9.00267,8.3573 13.26849,13.1371 z"
   id="path12-6"
   style="stroke-width:0.89719"
   sodipodi:nodetypes="cscsssscsscc" />
<path
   fill="#fccb40"
   opacity="1"
   stroke="none"
   d="m 346.98292,856.22117 c 0.43209,5.04852 -2.36234,8.86749 -4.4907,12.8515 -2.49005,4.66111 -5.38143,9.11221 -8.19998,13.59071 -0.77652,1.2339 -1.37524,3.3112 -3.88122,1.8443 -3.26261,-2.5915 -6.43588,-5.0028 -9.26969,-7.7626 -16.74032,-16.30296 -33.37405,-32.71532 -50.1047,-49.02812 -5.8483,-5.7024 -11.86978,-11.22705 -17.9737,-17.17743 1.86667,0.0557 3.10315,-1.01349 4.43576,-2.41315 4.90738,-5.15442 9.94291,-10.18768 14.9751,-15.22162 1.12949,-1.13 2.03916,-2.7229 4.38785,-2.59363 2.28552,-0.78253 3.53406,0.48017 4.73367,1.56757 21.50605,19.49347 42.18335,39.84497 62.5622,60.50482 1.0618,1.07642 1.87765,2.3067 2.82541,3.83765 z"
   id="path13" />
<path
   fill="#fdcb3f"
   opacity="1"
   stroke="none"
   d="m 555.54212,467.67948 c -2.46185,-0.453 -3.65539,-2.10913 -5.03656,-3.49103 -12.24475,-12.25122 -24.22919,-24.77746 -36.81238,-36.67041 -8.58581,-8.11487 -17.10437,-16.28833 -25.45343,-24.63989 -5.62445,-5.62622 -5.54858,-5.68243 1.16449,-9.32129 6.67542,-3.61841 13.09748,-7.6958 20.5492,-9.78427 2.02111,-0.5665 2.90698,-0.0494 4.25,1.06186 9.99102,8.26636 18.56085,17.99725 27.91656,26.91424 12.69837,12.10291 25.45099,24.14698 37.763,37.09107 -7.06256,4.48816 -12.86413,10.35748 -18.60968,16.30469 -1.44726,1.49804 -2.73828,3.53168 -5.7312,2.53503 z"
   id="path14" />
<path
   fill="#3c6f96"
   opacity="1"
   stroke="none"
   d="m 555.34296,467.85117 c 1.94971,-0.2691 2.96381,-1.84851 4.24219,-3.11749 5.013,-4.97638 10.17017,-9.8111 15.08008,-14.8858 1.55939,-1.61176 2.90405,-1.78766 5.03522,-0.78467 7.9259,7.51013 15.3471,15.13306 23.12146,22.37707 12.13372,11.3061 23.35247,23.57013 36.08184,34.25373 3.84479,3.22687 2.19172,7.56573 0.80597,11.03723 -2.72241,6.82001 -5.51642,13.64508 -9.34741,20.00561 -1.92474,3.1955 -3.39007,2.30793 -5.21167,0.38086 -7.69708,-8.14257 -15.99902,-15.66272 -24.00384,-23.48736 -15.3667,-15.02075 -30.46296,-30.31812 -45.80384,-45.77918 z"
   id="path15" />
<path
   fill="#fbca40"
   opacity="1"
   stroke="none"
   d="m 358.13129,771.00217 c 3.0983,3.25159 2.94409,6.98493 2.96698,10.70813 0.0561,9.1214 0.35593,18.24573 -0.96353,27.32197 -0.2868,1.97296 -0.10397,4.10479 -3.07376,4.78423 -2.88321,1.02759 -4.23056,-0.97662 -5.73788,-2.40112 -15.49253,-14.64093 -30.82071,-29.45172 -45.72406,-44.69543 -1.6041,-1.64081 -3.57444,-3.09033 -3.61292,-6.02588 2.08664,0.19916 3.09915,-1.06207 4.30457,-2.28973 5.00644,-5.09937 10.14791,-10.06605 15.16137,-15.15857 1.36081,-1.38227 2.70499,-2.43079 5.11252,-2.11835 7.19025,6.58118 13.98428,13.32062 20.87085,19.96405 3.41132,3.29101 6.99283,6.40545 10.69586,9.9107 z"
   id="path16" />
<path
   fill="#fccb41"
   opacity="1"
   stroke="none"
   d="m 604.44337,417.54227 c -4.98218,-2.93933 -8.23578,-7.32385 -12.17914,-10.88195 -9.15998,-8.26502 -17.59546,-17.33289 -26.32508,-26.07486 -2.46899,-2.47251 -4.95587,-4.9274 -7.39856,-7.42566 -0.65863,-0.67365 -1.78411,-1.3194 -1.16064,-2.46897 0.45959,-0.84723 1.30139,-1.30484 2.43378,-1.39743 10.91522,-0.89254 21.61395,-3.96057 32.72003,-3.08358 2.56952,0.20291 4.7547,0.69613 6.60492,2.5689 9.61621,9.73352 19.26636,19.43354 29.1394,29.41614 -5.79291,5.48175 -11.17804,11.35993 -16.96722,16.81702 -1.79364,1.69073 -3.65247,3.53662 -6.86749,2.53039 z"
   id="path17" />
<path
   fill="#fccc42"
   opacity="1"
   stroke="none"
   d="m 430.68421,597.77311 c 7.27197,6.46362 13.82062,13.27624 20.55969,19.89453 6.90332,6.77966 14.10126,13.28052 20.94336,20.14154 0.93775,0.94043 2.05451,1.80982 2.66895,2.94006 0.92004,1.69257 1.34185,3.06189 -1.67987,3.54328 -9.27002,1.47668 -18.57184,1.76068 -27.92585,2.14477 -7.80108,0.32032 -13.43493,-1.97204 -18.55541,-7.87512 -6.42005,-7.40124 -13.71479,-14.04364 -20.89466,-21.2713 4.90729,-7.91278 11.98731,-13.74506 18.64301,-19.97272 1.45037,-1.35711 3.30798,-1.44714 5.40484,-0.22711 0.28559,0.2403 0.28345,0.15485 0.24073,0.1543 0.0925,0.1253 0.22778,0.25104 0.59521,0.52777 z"
   id="path18" />
<path
   fill="#3c6e95"
   opacity="1"
   stroke="none"
   d="m 604.2494,417.66935 c 2.45404,-0.38574 3.94201,-2.25421 5.56787,-3.84802 4.45953,-4.37159 8.85492,-8.8089 13.336,-13.15815 1.24035,-1.20397 2.31005,-2.95025 4.9472,-2.25012 7.84143,5.53015 13.45355,12.94336 20.48334,18.86164 4.21557,3.54907 4.11218,9.08972 4.2702,13.71661 0.31445,9.20471 1.4173,18.52924 -0.72089,27.7005 -0.27276,1.16986 0.65595,2.85925 -1.16656,3.38403 -1.55615,0.44819 -2.33929,-0.93133 -3.29773,-1.79461 -15.00537,-13.51563 -29.01184,-28.05347 -43.41943,-42.61188 z"
   id="path19" />
<path
   fill="#3c6f95"
   opacity="1"
   stroke="none"
   d="m 430.03602,597.0034 c -2.52973,-0.34723 -4.17798,1.09582 -5.87665,2.83013 -5.77533,5.89643 -11.21991,12.14539 -18.24066,17.17133 -4.75269,-4.29584 -8.77234,-9.07153 -13.58741,-12.82739 -5.7431,-4.4798 -7.82446,-10.26111 -8.18707,-17.02484 -0.37158,-6.93036 -1.58191,-13.82514 -1.00946,-20.7967 0.28259,-3.44134 0.52948,-6.8966 1.06446,-10.30285 0.44219,-2.81543 2.11639,-1.9253 3.45318,-0.68762 2.073,1.91931 3.99097,4.00494 6.01495,5.97863 12.08387,11.78369 24.17933,23.55554 36.36866,35.65931 z"
   id="path20" />
<path
   fill="#386a90"
   opacity="1"
   stroke="none"
   d="m 900.36998,243.3747 c -4.0122,-0.88971 -8.4595,-0.67776 -12.3557,-3.26483 -2.5223,-1.67471 -5.593,-1.01706 -8.5647,0.21362 -10.40624,4.30951 -17.1585,12.789 -24.20403,20.89737 -1.58362,1.82248 -3.33972,3.21585 -5.30292,4.42008 -1.59808,0.98028 -3.16839,0.71396 -4.44091,-0.81391 -9.37415,-11.25531 -21.94605,-19.15265 -31.5973,-30.14688 -4.15661,-4.73501 -8.81787,-9.03583 -13.36053,-13.41931 -2.16473,-2.08884 -3.76282,-4.332 -6.33331,0.61261 -1.74341,3.35358 -6.43414,5.40311 -10.12744,7.4599 -5.19849,2.89511 -6.18567,6.48447 -1.90137,10.42413 13.47583,12.39173 26.32092,25.42188 39.27099,38.34766 5.67194,5.66122 5.51099,6.68558 -1.74731,10.31964 -0.86853,0.43485 -1.89478,0.55457 -3.22009,0.8288 -0.52204,-0.1745 -0.67206,-0.35742 -0.90576,-0.88535 -0.23133,-3.21551 4.49798,-3.68423 3.49652,-6.25183 -1.11438,-2.85733 -4.14673,-4.6438 -6.40778,-6.81793 -15.06805,-14.48874 -29.90234,-29.21628 -44.85828,-43.81937 -1.49584,-1.4606 -3.49029,-2.71994 -2.85302,-5.5711 2.74652,-0.13761 3.94085,-2.09122 5.45355,-3.54428 5.65204,-5.42914 10.55157,-11.62571 17.12884,-16.61499 9.68928,7.3537 17.68439,16.31292 26.58008,24.32666 11.08008,9.98156 21.31012,20.91116 31.81147,31.52609 1.72497,1.74359 2.65515,1.44281 4.43396,4.6e-4 6.66272,-5.40302 11.6109,-12.37079 17.40795,-18.55524 6.87839,-7.33795 22.44389,-7.45895 30.45359,-2.66928 0.8888,0.53143 1.3465,1.78351 2.1435,2.99728 z"
   id="path21" />
<path
   fill="#35668e"
   opacity="1"
   stroke="none"
   d="m 797.83375,298.23826 c -1.23713,1.68738 -3.33704,2.38067 -5.28601,3.25622 -6.40595,2.87772 -8.01661,2.47095 -13.15717,-2.43118 -11.45581,-10.92462 -21.9613,-22.82425 -34.08258,-33.07318 -2.27582,-1.92435 -3.71961,-1.46957 -4.42456,0.95621 -0.99896,3.43716 -3.17938,5.16034 -6.43304,6.2178 -3.51581,1.1427 -5.15943,4.56366 -7.53193,7.05472 -1.5058,1.58099 -0.29229,3.11166 0.98078,4.297 7.65081,7.12347 14.09802,15.53344 22.83288,21.4884 1.71039,1.16599 2.70234,2.48874 2.21387,4.54028 -0.48376,2.03174 -2.42328,2.2511 -3.96008,2.47855 -12.03632,1.78137 -24.12812,1.60498 -36.55658,0.51581 0.65558,-1.18003 1.89618,-0.5842 3.31213,-0.96549 11.48987,0.12097 22.50647,-1.61029 34.48151,-2.7272 -11.8111,-11.45032 -23.1258,-22.41947 -34.58704,-33.58795 2.15491,-0.38748 3.80518,-1.64002 5.34723,-3.27515 4.56372,-4.83905 9.22217,-9.58868 13.83606,-14.38055 1.13678,-1.18076 2.07611,-2.69855 4.49701,-2.17145 2.96686,-0.41647 4.25616,1.57681 5.87414,2.91992 11.1568,9.26111 20.78425,20.11475 31.25843,30.08841 5.44446,5.18426 10.54425,10.6749 19.41925,7.77368 0.73498,0.49304 1.21313,0.74613 1.9657,1.02515 z"
   id="path22" />
<path
   fill="#35668e"
   opacity="1"
   stroke="none"
   d="m 806.70905,344.26811 c 0.41016,0.19079 0.41406,0.38037 0.4234,0.85436 -15.50946,6.81601 -31.8501,10.2338 -48.76123,13.03589 -1.18616,-0.52789 -1.99438,-0.40744 -3.03137,-0.0492 -0.22638,0.20849 -0.20776,0.15429 -0.19128,0.17776 -0.98847,0.78311 -2.1756,0.33808 -3.58106,0.65119 -3.76587,0.52133 -7.21857,0.91174 -11.10193,1.2322 -2.36255,-0.76199 -4.19116,-0.48437 -6.18164,0.73005 -5.03497,0.26086 -9.83386,0.22473 -14.62597,0.38879 -2.70716,0.0927 -3.84461,-0.96765 -4.95655,-3.56604 -3.55688,-8.31165 -3.92834,-17.46985 -7.37951,-26.15375 0.91577,-2.03949 -0.91285,-3.251 -1.03699,-4.98633 -1.21906,-3.26007 -2.17719,-6.31665 -3.15955,-9.74645 -0.92053,-2.57783 -0.84039,-4.18564 2.58008,-3.72028 0.20184,1.07785 -0.41156,2.11618 -0.11566,2.65561 3.79773,6.92148 3.30658,15.03937 6.44134,22.2229 2.22382,5.09613 3.6308,10.59735 5.66425,15.84314 1.31439,3.39081 3.32098,4.49197 6.75134,4.47412 19.4574,-0.10126 38.5409,-2.71942 57.44941,-7.34229 8.21417,-2.00824 16.09155,-5.13995 24.81292,-6.70162 z"
   id="path23" />
<path
   fill="#386a90"
   opacity="1"
   stroke="none"
   d="m 907.15508,264.58103 c -1.6518,-0.70224 -2.0723,-1.72369 -2.0171,-2.98761 0.27,-6.18814 -1.3743,-11.83676 -4.5678,-17.3833 3.7482,0.13501 4.2455,3.24246 5.4829,5.81009 1.0155,2.10699 2.3269,4.07126 3.2481,6.28171 -0.5492,0.53918 -0.8234,0.90719 -1.1986,1.61166 -0.1709,1.99808 -0.2226,3.6731 -0.3411,5.76059 -0.1582,0.6984 -0.2495,0.98428 -0.6064,0.90686 z"
   id="path24" />
<path
   fill="#618189"
   opacity="1"
   stroke="none"
   d="m 706.41834,313.34977 c -2.02203,-0.0962 -3.22034,0.3977 -3.27447,2.7428 -3.224,-7.05664 3.23578,-2.55628 5.51141,-3.70063 -0.35004,0.35193 -1.13336,0.63596 -2.23694,0.95783 z"
   id="path25" />
<path
   fill="#0000ff"
   opacity="1"
   stroke="none"
   d="m 372.98542,574.8209 c -1.61737,-2.61627 -0.78406,-5.82178 -0.3696,-9.27173 0.34055,2.75031 0.3992,5.78693 0.3696,9.27173 z"
   id="path26" />
<path
   fill="#446e9b"
   opacity="1"
   stroke="none"
   d="m 734.43238,361.16001 c 0.63104,-3.53097 3.14123,-1.32291 5.31872,-1.26355 -1.45459,0.57257 -3.19299,0.94132 -5.31872,1.26355 z"
   id="path27" />
<path
   fill="#446e9b"
   opacity="1"
   stroke="none"
   d="m 706.06031,326.74015 c 2.06415,0.5032 1.91315,2.21078 1.39783,4.22009 -0.58271,-1.12805 -0.97205,-2.49374 -1.39783,-4.22009 z"
   id="path28" />
<path
   fill="#446e9b"
   opacity="1"
   stroke="none"
   d="m 715.63807,312.3646 c -0.50586,0.95581 -1.68109,0.89111 -3.18622,0.914 -0.86072,-0.14569 -1.37024,-0.29754 -2.07666,-0.63153 1.48376,-0.23486 3.16443,-0.28763 5.26288,-0.28247 z"
   id="path29" />
<path
   fill="#7b8c7b"
   opacity="1"
   stroke="none"
   d="m 908.31018,258.22868 c -1.175,-0.89914 -0.936,-1.48709 0.4692,-1.77683 0.601,0.46405 0.9396,0.89517 1.2199,1.59744 -0.4929,0.23792 -0.9275,0.20471 -1.6891,0.17939 z"
   id="path30" />
<path
   fill="#3755ae"
   opacity="1"
   stroke="none"
   d="m 751.60987,359.13541 c 0.57959,-0.88104 1.73157,-0.8515 3.21021,-0.85946 -0.38312,1.54617 -1.7417,0.79535 -3.21021,0.85946 z"
   id="path31" />
<path
   fill="#3755ae"
   opacity="1"
   stroke="none"
   d="m 755.46973,358.28944 c 0.31549,-0.73185 1.0857,-1.08481 2.27265,-0.37769 -0.50275,0.23673 -1.20954,0.29312 -2.27265,0.37769 z"
   id="path32" />
<path
   fill="#3c6f95"
   opacity="1"
   stroke="none"
   d="m 430.85316,597.73026 c 0.0634,0.19385 -0.38239,0.19525 -0.38239,0.19525 0,0 -0.38,-0.23321 -0.40228,-0.45691 0.27307,-0.24713 0.52093,-0.14996 0.78467,0.26166 z"
   id="path33" />

<path
   fill="#000000"
   opacity="1"
   stroke="none"
   d="m 500.4947,88.304079 c -9.61743,-4.33923 -16.46552,-10.78707 -19.43341,-20.806614 -5.88581,-19.87063 9.63501,-37.32212 27.44775,-38.35339 14.20856,-0.8226 27.17523,9.22565 30.90015,22.66249 4.7033,16.966 -9.92682,37.785224 -27.75019,37.451164 -3.59228,-0.0673 -7.29791,0.86479 -11.1643,-0.95365 z"
   id="path35"
   style="fill:#fdc93d;fill-opacity:1" />

<path
   fill="#000000"
   opacity="1"
   stroke="none"
   d="m 514.0387,998.27665 c -18.01751,-0.066 -33.29046,-19.1942 -29.22491,-36.19857 3.79999,-15.894 21.12024,-27.5006 37.67901,-22.6654 9.31116,2.7189 19.00623,15.9916 19.70038,25.9823 0.80139,11.53367 -3.35284,20.80227 -12.43371,27.49757 -4.32526,3.1889 -9.72193,4.8935 -15.72077,5.3841 z"
   id="path37"
   style="fill:#3c7299;fill-opacity:1" />
<path
   fill="#386a90"
   opacity="1"
   stroke="none"
   d="m 901.46218,277.24833 c -0.1714,-2.37622 -1.2319,-5.56934 3.3928,-5.92822 -0.7707,1.91247 -1.9394,3.82669 -3.3928,5.92822 z"
   id="path38" />
<path
   fill="#ffff00"
   opacity="1"
   stroke="none"
   d="m 956.52708,542.67802 c 2.383,-0.29194 5.0592,-0.34388 8.1842,-0.32319 -2.2551,1.52741 -5.0808,0.91346 -8.1842,0.32319 z"
   id="path39" />
<path
   fill="#7b8c7b"
   opacity="1"
   stroke="none"
   d="m 906.91138,264.58909 c -0.022,-0.3714 0.3734,-0.48145 0.5783,-0.49195 0.1478,0.87165 0.091,1.75379 -0.17,2.90995 -0.363,0.17535 -0.5228,0.0767 -0.6162,-0.29575 0.121,-0.76608 0.1756,-1.25845 0.2079,-2.12225 z"
   id="path40" />
<path
   fill="#386a90"
   opacity="1"
   stroke="none"
   d="m 906.61318,266.65775 c 0.1568,-0.22012 0.3058,0.21152 0.4045,0.41745 -0.047,0.52039 -0.1916,0.83484 -0.571,1.27494 -0.153,-0.40702 -0.072,-0.93961 0.1665,-1.69239 z"
   id="path41" />
<path
   fill="#386a90"
   opacity="1"
   stroke="none"
   d="m 898.29428,281.05924 c -0.072,-0.16678 0.097,-0.37808 0.453,-0.69436 0.1657,0.19766 0.033,0.44925 -0.453,0.69436 z"
   id="path42" />

<path
   fill="#386a90"
   opacity="1"
   stroke="none"
   d="m 803.99,294.67875 c 1.16253,-0.97318 2.23956,-1.69113 3.64654,-2.43308 1.0603,-0.60015 1.90924,-0.47885 3.10773,-0.22311 -1.95502,1.33319 -3.23523,5.22253 -6.75427,2.65619 z"
   id="path44" />
<path
   fill="#446e9b"
   opacity="1"
   stroke="none"
   d="m 811.10724,291.93101 c -0.78521,0.30826 -1.57019,0.31363 -2.74792,0.30484 0.44232,-0.59876 1.27753,-1.18338 2.42706,-1.79431 0.31671,0.37799 0.31891,0.78225 0.32086,1.48947 z"
   id="path45" />
<path
   fill="#446e9b"
   opacity="1"
   stroke="none"
   d="m 814.27344,289.24274 c 0.21076,-0.33804 0.69654,-0.65966 1.49115,-1.03799 0.31543,0.12894 0.32202,0.31461 0.33869,0.77878 0.01,0.27847 0.007,0.28195 0.005,0.28369 -0.16876,0.12012 -0.33515,0.23853 -0.75519,0.18539 -0.43726,-0.17886 -0.62085,-0.18615 -1.07941,-0.20987 z"
   id="path46" />
<path
   fill="#35668e"
   opacity="1"
   stroke="none"
   d="m 798.11072,298.26612 c 0.2226,-0.19739 0.4328,-0.41296 0.67591,-0.58078 0.0583,-0.0403 0.22601,0.078 0.34338,0.12335 -0.20563,0.13983 -0.41125,0.27967 -0.81946,0.4375 -0.20251,0.018 -0.20007,0.0193 -0.19983,0.0199 z"
   id="path47" />
<path
   fill="#446e9b"
   opacity="1"
   stroke="none"
   d="m 812.21204,290.1428 c -0.0159,-0.17398 0.17609,-0.43778 0.61866,-0.70026 0.0763,0.25461 -0.14423,0.45764 -0.61866,0.70026 z"
   id="path48" />
<path
   fill="#386a90"
   opacity="1"
   stroke="none"
   d="m 815.20374,289.41099 c 0.0631,-0.13465 0.23084,-0.13941 0.65021,-0.1431 0.25165,10e-4 -0.0939,0.33841 -0.0939,0.33841 0,0 -0.45179,-0.0654 -0.55634,-0.19531 z"
   id="path49" />
<path
   fill="#35668e"
   opacity="1"
   stroke="none"
   d="m 807.10859,344.26304 c -0.002,-0.002 0.2149,-0.35172 0.2149,-0.35172 0,0 -0.0115,0.26508 -0.10986,0.31156 -0.0983,0.0464 -0.10315,0.0426 -0.10504,0.0402 z"
   id="path50" />
<g
   id="g1"
   transform="translate(-458.05765,-1277.336)"><text
     xml:space="preserve"
     style="font-size:646.22px;font-family:'Quicksand Medium';-inkscape-font-specification:'Quicksand Medium, Normal';fill:#3c7299;fill-opacity:1;stroke-width:4.77719;stroke-miterlimit:13.2;stroke-opacity:0.994864;paint-order:fill markers stroke"
     x="1532.446"
     y="1929.271"
     id="text1"
     transform="scale(0.98556405,1.0146474)"><tspan
       sodipodi:role="line"
       id="tspan1"
       x="1532.446"
       y="1929.271"
       style="fill:#3c7299;fill-opacity:1;stroke-width:4.77719">Phylo</tspan></text><text
     xml:space="preserve"
     style="font-size:646.22px;font-family:'Quicksand Medium';-inkscape-font-specification:'Quicksand Medium, Normal';fill:#fec93b;fill-opacity:1;stroke-width:4.77719;stroke-miterlimit:13.2;stroke-opacity:0.994864;paint-order:fill markers stroke"
     x="3207.1335"
     y="1929.271"
     id="text2"
     transform="scale(0.98556405,1.0146474)"><tspan
       sodipodi:role="line"
       id="tspan2"
       x="3207.1335"
       y="1929.271"
       style="fill:#fec93b;fill-opacity:1;stroke-width:4.77719">Zoo</tspan></text></g></svg>
